<svg width="204" height="318" viewBox="0 0 204 318" fill="none" xmlns="http://www.w3.org/2000/svg">
<path d="M9.48111 132.011C19.6243 146.629 35.487 156.31 49.6338 166.338C65.4433 177.554 81.3789 188.845 95.8379 201.941C118.87 222.855 135.188 247.394 143.396 275.508C140.012 270.251 136.811 264.796 132.534 260.118C127.634 254.739 118.534 260.098 122.648 266.662C131.725 281.074 139.296 295.321 144.604 311.302C147.489 319.913 158.988 319.688 159.587 310.97C160.908 292.238 166.095 274.503 173.369 257.928C177.736 247.89 162.87 239.97 158.812 250.384C156.669 255.893 155.219 261.626 153.557 267.291C148.789 249.092 138.932 231.469 126.836 216.334C102.505 185.974 69.6466 165.42 39.2115 142.365C25.4511 131.957 8.26606 114.461 17.832 97.5552C25.7916 83.5509 44.1915 76.313 59.4058 72.6111C92.8949 64.4062 129.224 70.3584 163.113 63.91C179.397 60.7929 197.406 53.875 202.49 36.7131C206.314 23.8785 202.324 8.19894 189.034 0.90622L184.749 6.12922C199.793 19.9937 188.906 38.5332 175.281 44.405C159.874 50.9673 140.702 50.4009 123.671 50.9999C91.8474 52.1095 58.3603 51.5267 30.5594 66.1993C18.4982 72.5252 6.18861 81.7617 1.74173 95.4105C-2.11652 107.423 1.8158 121.005 9.48111 132.011Z" fill="#786BE1"/>
</svg>
