<svg width="487" height="580" viewBox="0 0 487 580" fill="none" xmlns="http://www.w3.org/2000/svg">
<path fill-rule="evenodd" clip-rule="evenodd" d="M206.876 114.248C199.614 105.724 194.699 95.277 195.52 83.571C197.887 49.8428 244.837 57.2626 253.97 74.2857C263.103 91.3088 262.018 134.489 250.215 137.532C245.507 138.745 235.48 135.773 225.274 129.621L231.68 174.942H193.854L206.876 114.248Z" fill="#B28B67"/>
<path fill-rule="evenodd" clip-rule="evenodd" d="M232.411 54.6658C227.426 53.8482 214.003 53.2862 211.527 53.2865C209.945 53.2865 208.231 53.6479 207.294 52.1954C206.527 51.0059 206.808 48.9942 206.579 47.6139C206.313 46.0104 205.935 44.4276 205.553 42.8488C204.466 38.3562 202.822 34.0821 200.522 30.0692C196.207 22.5405 189.884 16.6433 181.903 13.2117C173.089 9.42269 163.115 8.55508 153.634 9.32362C143.489 10.1459 134.305 13.4951 124.726 16.6469C115.597 19.6503 106.036 20.8325 96.4889 19.3658C86.8696 17.8883 79.6014 12.6747 71.4877 7.72631C63.1816 2.66039 53.6893 -0.652902 43.87 0.108745C34.704 0.819955 26.2561 4.6046 18.6767 9.66036C11.5854 14.3906 5.7341 20.0818 2.43061 28.0916C-1.12321 36.7077 -1.11995 46.1654 4.7241 53.78C13.1948 64.8176 28.9204 67.6718 42.0034 67.3881C49.5708 67.2244 57.0029 65.843 64.1475 63.3302C73.6756 59.9788 81.9093 54.2985 90.8232 49.6898C95.0064 47.5272 99.3304 45.751 103.863 44.4715C108.261 43.2294 112.593 42.6597 116.575 45.3166C120.788 48.1274 124.562 50.8884 129.382 52.6479C134.005 54.3359 138.902 55.2801 143.827 55.242C153.411 55.168 162.858 52.182 172.166 50.1819C179.756 48.5512 187.877 46.9259 195.615 48.4935C198.844 49.1477 203.561 50.4983 204.727 53.854C185.098 57.4115 177.389 81.687 182.923 99.5075C185.909 109.126 203.862 120.37 210.842 115.313C215.265 112.11 212.58 107.904 210.842 105.128C207.515 99.8112 206.377 92.9818 212.533 89.2803C217.844 86.0878 223.428 93.669 223.534 93.6607C224.994 93.5457 237.606 86.4126 246.296 76.0037C254.869 76.5119 256.169 70.8593 254.122 66.2366C252.075 61.6138 239.299 55.7961 232.411 54.6658Z" fill="#191847"/>
<path d="M178.094 579.987C245.117 579.987 299.45 528.124 299.45 464.147C299.45 400.171 245.117 348.308 178.094 348.308C111.071 348.308 56.7383 400.171 56.7383 464.147C56.7383 528.124 111.071 579.987 178.094 579.987Z" fill="#C5CFD6"/>
<path fill-rule="evenodd" clip-rule="evenodd" d="M407.424 562.115C387.23 517.421 372.626 478.503 366.764 457.97C356.727 422.812 349.092 391.875 347.162 380.322C342.56 352.772 382.563 351.168 387.851 364.86C395.854 385.583 409.825 453.671 426.613 556.516L407.424 562.115ZM173.189 421.852C191.717 414.529 256.6 391.61 287.893 385.127C296.885 383.264 305.601 381.533 313.795 379.968C338.151 375.319 350.77 419.258 327.312 422.634C268.892 431.042 186.073 439.724 178.985 440.699C169.052 442.064 161.545 426.455 173.189 421.852Z" fill="#B28B67"/>
<path fill-rule="evenodd" clip-rule="evenodd" d="M328.745 367.876L228.528 316.86V305.754H240.447C337.402 330.46 386.946 346.293 389.079 353.253C389.102 353.328 389.123 353.403 389.142 353.478C389.19 353.542 389.238 353.607 389.286 353.671C408.5 380.097 420.007 509.108 423.784 518.767L386.965 524.26C372.881 472.033 327.82 435.65 329.017 373.098C328.693 371.263 328.612 369.523 328.745 367.876Z" fill="#9A90E8"/>
<path fill-rule="evenodd" clip-rule="evenodd" d="M236.854 398.175C227.685 396.339 219.241 394.701 212.015 393.434C165.343 385.247 151.733 360.264 159.78 305.754H245.773C259.82 309.79 332.822 340.404 370.698 356.687C395.767 367.464 387.864 406.314 373.668 416.424C373.591 417.044 373.335 417.465 372.88 417.654C296.514 449.305 236.101 432.698 215.919 438.004L206.585 408.558L236.854 398.175Z" fill="#786BE1"/>
<path fill-rule="evenodd" clip-rule="evenodd" d="M180.945 417.584C175.679 418.318 171.921 419.253 169.67 420.389C166.933 421.771 163.135 424.205 158.277 427.691C159.647 430.599 171.957 456.725 195.208 506.071C203.523 504.394 206.939 501.214 205.458 496.529C203.977 491.845 202.789 487.932 201.894 484.791L202.468 439.405C202.479 438.531 201.748 437.884 200.835 437.958C200.82 437.959 200.804 437.96 200.789 437.962L193.481 438.753C189.496 435.736 186.906 432.957 185.709 430.417C184.736 428.354 184.304 425.044 184.411 420.489L184.412 420.489C184.453 418.741 183.006 417.429 181.181 417.559C181.102 417.565 181.023 417.573 180.945 417.584Z" fill="#E4E4E4"/>
<path fill-rule="evenodd" clip-rule="evenodd" d="M398.235 553.828C396.471 558.535 395.59 562.057 395.59 564.394C395.59 567.236 396.063 571.383 397.01 576.836C400.307 576.836 429.938 576.836 485.902 576.836C488.212 569.199 486.879 565.076 481.902 564.467C476.925 563.858 472.791 563.308 469.499 562.818L428.183 544.399C427.388 544.044 426.456 544.401 426.101 545.196C426.095 545.21 426.089 545.224 426.084 545.237L423.428 551.68C418.821 553.829 415.077 554.904 412.196 554.904C409.856 554.904 406.624 553.959 402.5 552.069L402.5 552.069C400.918 551.343 399.047 552.038 398.321 553.62C398.29 553.689 398.261 553.758 398.235 553.828Z" fill="#E4E4E4"/>
<path fill-rule="evenodd" clip-rule="evenodd" d="M326.243 262.597L383.351 237.517C393.355 227.549 403.015 219.972 412.331 214.787C415.117 213.9 419.876 213.632 414.799 221.049C409.721 228.466 404.713 236.496 406.742 239.095C408.771 241.694 414.649 238.826 416.971 243.053C418.519 245.871 408.611 249.242 387.248 253.165L344.478 285.957L326.243 262.597ZM95.3645 269.505L127.661 275.913C95.1814 336.441 77.7634 368.521 75.4066 372.153C70.1038 380.325 75.0514 395.301 76.8791 403.187C65.4134 405.856 69.9351 388.599 55.4256 392.202C42.182 395.491 30.953 403.931 18.6039 392.548C17.0856 391.149 15.9742 386.774 21.1507 384.531C34.0472 378.941 53.1007 368.475 56.1903 364.411C60.4034 358.87 73.4615 327.235 95.3645 269.505Z" fill="#B28B67"/>
<path fill-rule="evenodd" clip-rule="evenodd" d="M215.439 148.672L229.067 146.334C258.751 175.129 270.864 244.307 290.646 253.464C309.349 262.122 335.863 253.744 367.378 242.432L377.029 263.996C348.394 294.975 287.392 321.147 262.665 306.206C223.132 282.318 214.006 196.996 215.439 148.672Z" fill="#E1B1F0"/>
<path fill-rule="evenodd" clip-rule="evenodd" d="M156.029 319.938C210.674 319.938 250.869 319.938 276.615 319.938C282.125 319.938 281.087 311.982 280.291 307.967C271.098 261.63 235.212 211.682 235.212 145.723L200.43 140.269C171.66 186.539 161.711 243.507 156.029 319.938Z" fill="#DDE3E9"/>
<path fill-rule="evenodd" clip-rule="evenodd" d="M144.002 273.024C119.42 317.366 98.7573 349.29 82.0141 368.796L56.7383 363.845C73.0198 262.871 120.169 188.345 198.186 140.269H204.464L211.958 140.269C243.184 246.71 251.792 317.633 237.783 353.036H129.237C130.954 327.131 136.46 299.735 144.002 273.024H144.002Z" fill="#E1B1F0"/>
</svg>
