<svg width="477" height="552" viewBox="0 0 477 552" fill="none" xmlns="http://www.w3.org/2000/svg">
<path fill-rule="evenodd" clip-rule="evenodd" d="M328.932 67.3159C336.408 58.5405 341.468 47.7861 340.622 35.7355C338.186 1.01427 289.853 8.65249 280.451 26.1768C271.049 43.701 272.167 88.1528 284.318 91.2849C289.163 92.5339 299.486 89.4742 309.993 83.1416L303.398 129.796H342.337L328.932 67.3159Z" fill="#915B3C"/>
<path fill-rule="evenodd" clip-rule="evenodd" d="M331.923 75.1316C336.81 53.3891 350.733 38.5679 348.607 28.8499C347.189 22.3713 343.411 18.3424 337.272 16.7634C334.097 3.91903 323.857 -1.54417 306.552 0.373774C280.595 3.25069 264.752 14.0306 271.594 37.7509C277.883 37.7509 285.475 35.4765 295.974 39.3734C299.305 40.6099 301.688 44.4443 303.122 50.8767H307.866C312.471 43.2432 317.011 40.4381 321.487 42.4614C325.962 44.4847 326.98 49.3993 324.539 57.2052L326.876 75.1316H331.923Z" fill="#191847"/>
<path fill-rule="evenodd" clip-rule="evenodd" d="M451.041 332.602H264.459C250.122 332.602 238.5 344.224 238.5 358.561V507.827C238.5 522.163 250.122 533.786 264.459 533.786H451.041C465.378 533.786 477 522.163 477 507.827V358.561C477 344.224 465.378 332.602 451.041 332.602ZM425.082 378.031C428.666 378.031 431.571 380.936 431.571 384.52V481.867C431.571 485.452 428.666 488.357 425.082 488.357H290.418C286.834 488.357 283.929 485.452 283.929 481.867V384.52C283.929 380.936 286.834 378.031 290.418 378.031H425.082Z" fill="#C5CFD6"/>
<path fill-rule="evenodd" clip-rule="evenodd" d="M77.6194 525.673C109.607 486.611 131.251 457.653 142.551 438.797C161.899 406.512 177.734 377.784 182.731 366.81C194.648 340.641 155.298 328.388 146.392 340.594C132.912 359.068 104.125 417.201 60.0304 514.993L77.6194 525.673Z" fill="#B28B67"/>
<path fill-rule="evenodd" clip-rule="evenodd" d="M143.169 514.316L202.7 364.461C215.433 337.144 153.945 319.187 144.587 331.9C123.343 360.763 72.8499 474.621 66.5205 483.22L143.169 514.316Z" fill="#8FC3EE"/>
<path fill-rule="evenodd" clip-rule="evenodd" d="M301.711 483.301C290.292 466.473 248.664 409.926 225.839 386.642C219.279 379.951 212.877 373.531 206.82 367.55C188.816 349.773 151.616 381.013 169.619 397.172C214.453 437.415 279.961 491.641 285.428 496.484C293.09 503.271 308.887 493.876 301.711 483.301Z" fill="#915B3C"/>
<path fill-rule="evenodd" clip-rule="evenodd" d="M299.917 476.155C303.744 479.155 306.211 481.633 307.318 483.589C308.664 485.969 310.199 489.694 311.923 494.766C308.935 496.526 282.085 512.35 231.371 542.237C225.661 537.076 224.917 532.912 229.138 529.744C233.36 526.577 236.846 523.908 239.597 521.74L268.313 484.253C268.866 483.531 269.879 483.333 270.577 483.809C270.589 483.817 270.601 483.826 270.613 483.834L276.07 487.81C281.263 487.15 285.165 486.05 287.775 484.512C289.896 483.262 292.377 480.745 295.219 476.96L295.219 476.96C296.309 475.507 298.334 475.09 299.741 476.027C299.801 476.068 299.86 476.11 299.917 476.155Z" fill="#E4E4E4"/>
<path fill-rule="evenodd" clip-rule="evenodd" d="M91.3799 519.836C93.195 524.681 94.1025 528.307 94.1025 530.712C94.1025 533.638 93.6151 537.908 92.6403 543.521C89.2463 543.521 58.7432 543.521 1.13125 543.521C-1.24675 535.659 0.125969 531.415 5.2494 530.788C10.3728 530.161 14.629 529.595 18.0178 529.09L60.5503 510.129C61.3687 509.764 62.3279 510.132 62.6928 510.95C62.699 510.964 62.7051 510.978 62.7109 510.992L65.4449 517.624C70.1878 519.837 74.042 520.944 77.0073 520.944C79.4166 520.944 82.7438 519.971 86.9889 518.025L86.9889 518.025C88.618 517.278 90.5441 517.993 91.2909 519.622C91.3231 519.692 91.3528 519.764 91.3799 519.836Z" fill="#E4E4E4"/>
<path fill-rule="evenodd" clip-rule="evenodd" d="M224.122 371.947C273.602 363.886 306.744 358.374 323.548 355.411C371.448 346.965 385.416 321.189 377.157 264.95H288.903C277.224 268.322 228.424 289.181 142.504 327.527C127.045 335.201 129.924 357.827 132.75 365.282C132.865 365.586 158.925 410.241 210.931 499.248L283.127 453.256L223.986 377.366C222.425 374.22 222.47 372.414 224.122 371.947Z" fill="#69AFE9"/>
<path fill-rule="evenodd" clip-rule="evenodd" d="M217.763 243.71L166.009 281.714C151.973 285.502 140.246 290.214 130.828 295.851C128.603 297.878 125.915 301.983 135.141 301.274C144.367 300.565 154.103 300.233 155.376 303.38C156.649 306.527 151.066 310.29 153.639 314.536C155.355 317.367 163.46 310.269 177.954 293.243L229.203 271.991L217.763 243.71ZM416.469 245.022L382.564 245.155C403.499 312.736 414.801 348.594 416.469 352.729C420.224 362.033 412.279 376.203 408.882 383.818C419.947 388.769 418.768 370.433 432.726 376.927C445.467 382.854 455.159 393.594 469.879 384.511C471.688 383.395 473.671 379.19 468.88 375.905C456.942 367.719 439.74 353.393 437.415 348.678C434.245 342.247 427.264 307.695 416.469 245.022Z" fill="#915B3C"/>
<path fill-rule="evenodd" clip-rule="evenodd" d="M320.116 102.753L306.087 100.346C254.033 145.313 232.653 231.7 168.848 277.462L184.205 296.498C294.895 282.793 322.331 177.422 320.116 102.753Z" fill="#EFA5A8"/>
<path fill-rule="evenodd" clip-rule="evenodd" d="M381.275 279.061C325.022 279.061 283.644 279.061 257.139 279.061C251.467 279.061 252.536 270.87 253.356 266.737C262.819 219.036 299.761 167.617 299.761 99.7164L335.568 94.1016C365.185 141.734 375.427 200.379 381.275 279.061Z" fill="#DDE3E9"/>
<path fill-rule="evenodd" clip-rule="evenodd" d="M380.277 140.923C385.477 139.428 389.595 135.941 392.631 130.463C405.719 106.848 400.992 93.8462 387.006 89.5725C373.02 85.2987 360.547 94.1019 338.263 94.1019C337.051 94.1019 335.941 94.1779 334.933 94.3299L323.723 94.9695C291.563 203.966 282.693 276.687 297.114 313.133H394.819C400.608 326.631 406.147 337.988 411.437 347.204H438.06C440.566 266.19 421.305 197.43 380.277 140.923Z" fill="#EFA5A8"/>
<path fill-rule="evenodd" clip-rule="evenodd" d="M373.543 257.154C370.471 282.864 365.476 301.523 358.561 313.132H394.819C388.067 297.386 380.975 278.727 373.543 257.154Z" fill="black" fill-opacity="0.1"/>
</svg>
