<svg width="274" height="322" viewBox="0 0 274 322" fill="none" xmlns="http://www.w3.org/2000/svg">
<path fill-rule="evenodd" clip-rule="evenodd" d="M142.422 68.6362C148.336 72.1966 154.147 73.9168 156.875 73.2145C163.715 71.4536 164.344 46.4617 159.051 36.6091C153.759 26.7566 126.55 22.4622 125.179 41.9833C124.703 48.7584 127.552 54.8048 131.76 59.7386L124.214 94.8666H146.134L142.422 68.6362Z" fill="#B28B67"/>
<path fill-rule="evenodd" clip-rule="evenodd" d="M130.076 64.1334C127.325 51.9092 119.487 43.5764 120.684 38.1127C121.881 32.649 127.065 31.3174 127.065 31.3174C127.065 31.3174 129.746 20.4853 144.358 22.1027C158.97 23.7202 167.889 29.7809 164.037 43.1171C160.497 43.1171 156.223 41.8383 150.313 44.0293C147.5 45.0721 146.289 50.4968 146.289 50.4968H143.618C143.618 50.4968 139.73 44.0591 135.951 45.7654C132.172 47.4718 134.233 54.0548 134.233 54.0548L132.917 64.1334H130.076Z" fill="#191847"/>
<path fill-rule="evenodd" clip-rule="evenodd" d="M84.5959 208.89H155.155L164.401 322H59.3672L84.5959 208.89Z" fill="#C5CFD6"/>
<path fill-rule="evenodd" clip-rule="evenodd" d="M84.5959 208.89H106.297L119.285 322H59.3672L84.5959 208.89Z" fill="black" fill-opacity="0.1"/>
<path fill-rule="evenodd" clip-rule="evenodd" d="M193.922 231.299C185.993 248.094 173.604 288.863 173.604 288.863L184.122 293.662C184.122 293.662 210.811 250.807 227.121 221.511C226.361 228.106 225.587 235.531 224.87 243.336C223.17 261.826 224.869 301.774 225.783 313.314C226.358 320.566 236.225 319.047 237.146 313.295C237.302 312.321 237.937 308.901 238.886 303.798C243.538 278.775 255.712 213.284 255.734 197.249C255.742 190.796 243.121 185 235.598 189.511C230.43 184.005 220.65 180.831 215.032 189.927C211.46 195.71 202.973 212.128 193.922 231.299Z" fill="#B28B67"/>
<path fill-rule="evenodd" clip-rule="evenodd" d="M174.355 273.769L210.457 188.354C219.106 174.459 243.354 191.182 240.405 199.241C233.709 217.537 199.655 276.769 197.66 282.22L174.355 273.769Z" fill="#48B2B7"/>
<path fill-rule="evenodd" clip-rule="evenodd" d="M175.165 284.01C174.468 283.07 173.127 282.846 172.233 283.602C170.749 284.856 168.712 286.709 167.961 288.007C166.726 290.144 165.069 294.655 165.069 294.655C167.551 296.086 209.681 320.379 209.681 320.379C209.681 320.379 214.739 315.64 211.257 313.022C207.775 310.404 205.511 308.606 205.511 308.606L190.165 287.489C189.834 287.034 189.192 286.941 188.745 287.285L185.616 289.691C185.616 289.691 181.214 289.307 179.045 288.057C177.771 287.322 176.224 285.438 175.165 284.01Z" fill="#E4E4E4"/>
<path fill-rule="evenodd" clip-rule="evenodd" d="M226.175 307.739C225.102 307.273 223.829 307.748 223.433 308.85C222.776 310.677 221.939 313.3 221.939 314.798C221.939 317.266 222.763 322 222.763 322C225.629 322 274.276 322 274.276 322C274.276 322 276.284 315.37 271.958 314.841C267.632 314.312 264.77 313.886 264.77 313.886L240.908 303.262C240.394 303.033 239.792 303.273 239.577 303.794L238.072 307.44C238.072 307.44 234.067 309.306 231.563 309.306C230.091 309.306 227.808 308.447 226.175 307.739Z" fill="#E4E4E4"/>
<path fill-rule="evenodd" clip-rule="evenodd" d="M258.263 203.812C258.263 228.046 246.74 284.574 246.733 289.91L221.94 289.929C221.94 289.929 227.383 214.27 225.8 213.454C224.217 212.639 160.907 219.768 141.919 219.768C114.539 219.768 103.212 202.523 102.293 170.578H156.533C167.576 171.758 225.181 183.363 246.574 187.352C255.733 189.059 258.263 197.136 258.263 203.812Z" fill="#76C5C9"/>
<path fill-rule="evenodd" clip-rule="evenodd" d="M229.576 66.5547L194.957 76.9339L203.796 91.6398L230.713 75.8189C243.278 75.0716 249.214 73.8339 248.523 72.1059C247.94 70.6488 246.553 70.4006 245.275 70.1719C244.279 69.9938 243.35 69.8275 242.919 69.111C241.936 67.4747 245.383 63.2151 248.828 59.3125C252.272 55.41 249.516 55.2282 247.851 55.5412C242.126 57.8625 236.034 61.5336 229.576 66.5547ZM221.032 159.259L191.898 137.892L185.458 153.793L214.308 165.741C222.467 175.313 227.03 179.304 227.996 177.712C228.81 176.371 228.173 175.114 227.587 173.957C227.13 173.056 226.704 172.215 227.018 171.44C227.735 169.671 233.215 169.857 238.409 170.256C243.603 170.655 242.089 168.347 240.837 167.207C235.535 164.038 228.934 161.389 221.032 159.259Z" fill="#B28B67"/>
<path fill-rule="evenodd" clip-rule="evenodd" d="M146.646 80.351C162.511 109.896 185.453 132.545 218.712 156.089L206.119 170.27C168.983 156.487 149.384 148.171 139.76 120.257C137.344 113.251 135.656 90.9178 134.207 79.1671L146.646 80.351Z" fill="#A3D8DB"/>
<path fill-rule="evenodd" clip-rule="evenodd" d="M102.294 178.787H172.621C172.621 178.787 148.725 106.003 148.207 78.8777C148.19 77.9558 146.485 76.3313 145.731 76.544C137.457 78.8777 128.024 74.7988 128.024 74.7988C111.352 101.579 105.586 134.551 102.294 178.787Z" fill="#F2F2F2"/>
<path fill-rule="evenodd" clip-rule="evenodd" d="M145.664 115.656C156.648 162.712 156.142 201.232 131.892 201.232H94.394C88.4384 161.259 104.091 105.834 118.602 77.8786C119.156 76.811 120.336 74.7985 123.115 74.7985H134.01C134.015 74.8129 134.02 74.8273 134.025 74.8417C137.304 74.8685 140.914 74.9883 144.825 75.1179C164.956 75.7854 193.025 76.716 224.609 66.5889L228.333 85.1732C199.825 103.485 170.958 117.67 145.664 115.656Z" fill="#48B2B7"/>
</svg>
