<svg width="217" height="325" viewBox="0 0 217 325" fill="none" xmlns="http://www.w3.org/2000/svg">
<path fill-rule="evenodd" clip-rule="evenodd" d="M93.6064 179.427L138.887 255.092L172.834 319.061H180.146L123.267 179.427L93.6064 179.427Z" fill="#997659"/>
<path fill-rule="evenodd" clip-rule="evenodd" d="M170.836 315.756C169.749 315.322 168.472 315.793 168.099 316.903C167.72 318.03 167.341 319.365 167.341 320.191C167.341 321.838 167.89 324.999 167.89 324.999C169.802 324.999 202.26 324.999 202.26 324.999C202.26 324.999 203.6 320.572 200.713 320.219C197.827 319.866 195.917 319.581 195.917 319.581L180.309 312.627C179.795 312.397 179.193 312.638 178.978 313.159L178.104 315.277C178.104 315.277 175.432 316.523 173.762 316.523C172.968 316.523 171.822 316.149 170.836 315.756Z" fill="#E4E4E4"/>
<path fill-rule="evenodd" clip-rule="evenodd" d="M163.406 308.818L177.507 304.554C177.507 304.554 168.24 276.864 154.791 243.609C141.342 210.355 125.903 179.427 125.903 179.427H86.0771C86.0771 179.427 103.242 218.55 122.47 250.523C141.699 282.497 163.406 308.818 163.406 308.818Z" fill="#E8C4F4"/>
<path fill-rule="evenodd" clip-rule="evenodd" d="M90.6304 179.427C86.3567 206.016 78.1141 239.987 77.3362 241.036C76.8176 241.734 58.1482 247.987 21.3281 259.795L22.9076 266.239C66.8155 259.907 89.9512 254.994 92.3148 251.501C95.8601 246.261 113.562 204.864 120.419 179.427H90.6304Z" fill="#B28B67"/>
<path fill-rule="evenodd" clip-rule="evenodd" d="M34.2715 254.224L37.0535 264.603C69.8941 267.482 90.0162 265.402 97.42 258.363C104.824 251.323 113.262 225.011 122.734 179.427H84.7574C78.7559 216.754 75.4007 236.201 74.6917 237.768C73.9828 239.335 60.5094 244.82 34.2715 254.224Z" fill="#E1B1F0"/>
<path fill-rule="evenodd" clip-rule="evenodd" d="M23.907 259.484C24.1457 258.338 23.4594 257.162 22.3013 256.987C21.125 256.81 19.7439 256.669 18.931 256.812C17.3077 257.098 14.2888 258.188 14.2888 258.188C14.6208 260.07 20.2571 292.019 20.2571 292.019C20.2571 292.019 24.8515 292.569 24.6981 289.667C24.5446 286.764 24.4934 284.836 24.4934 284.836L28.6352 268.265C28.7719 267.718 28.43 267.167 27.8796 267.046L25.6412 266.554C25.6412 266.554 23.9493 264.14 23.6592 262.495C23.5216 261.715 23.691 260.522 23.907 259.484Z" fill="#E4E4E4"/>
<path fill-rule="evenodd" clip-rule="evenodd" d="M113.357 63.6837C118.837 66.9871 124.222 68.5832 126.75 67.9316C133.089 66.2978 133.672 43.1094 128.767 33.9678C123.863 24.8263 98.6496 20.8418 97.3788 38.9542C96.9377 45.2404 99.5773 50.8504 103.477 55.4282L96.4844 88.0212H116.797L113.357 63.6837Z" fill="#B28B67"/>
<path fill-rule="evenodd" clip-rule="evenodd" d="M114.373 40.9546C116.13 38.3385 117.816 36.343 120.011 35.1842C128.941 35.3253 129.986 33.7244 129.986 28.3287C128.544 27.2966 123.455 25.5588 117.755 25.0699C114.848 24.2379 111.404 24.3944 108.086 25.7822C103.99 26.9443 100.522 29.447 98.9903 34.1324C93.4481 43.6968 97.6547 53.6531 103.324 57.0542C104.833 55.2664 106.149 53.5339 107.324 51.8753C106.38 50.9533 105.795 49.6664 105.795 48.2426C105.795 45.438 108.068 43.1645 110.873 43.1645C111.079 43.1645 111.282 43.1768 111.482 43.2006C111.608 46.7071 112.127 58.5704 113.492 62.6911C115.1 67.5493 124.485 68.7421 127.758 68.7421C130.586 68.7421 130.489 66.065 130.42 64.1463C130.41 63.87 130.401 63.6094 130.401 63.3748C130.401 62.8846 129.763 62.8859 129.043 62.8873C128.108 62.8892 127.033 62.8913 127.033 61.8182C127.033 60.6484 128.649 59.7511 130.096 58.9482C130.999 58.4472 131.835 57.983 132.171 57.5123C133.232 56.0271 133.59 54.0241 131.989 54.0241C131.114 54.0241 129.914 54.5285 128.469 55.1353C126.289 56.0514 123.553 57.201 120.543 57.201C115.57 57.201 114.387 41.1554 114.373 40.9546Z" fill="#191847"/>
<path fill-rule="evenodd" clip-rule="evenodd" d="M36.7303 198.816C39.2105 193.784 51.6023 129.026 51.6023 129.026L70.1353 129.096C70.1353 129.096 48.9623 197.694 47.6567 200.929C45.9607 205.132 48.8416 211.239 50.7951 215.38C51.0974 216.021 51.3774 216.614 51.6148 217.147C48.9042 218.36 47.6021 216.893 46.2294 215.348C44.6789 213.602 43.0383 211.755 39.1762 213.552C37.6841 214.246 36.2722 215.067 34.8927 215.868C30.1278 218.638 25.7504 221.182 19.7957 217.508C18.8516 216.926 17.8171 214.732 20.3166 213.019C26.5439 208.749 35.5178 201.275 36.7303 198.816ZM192.818 173.583L168.842 150.194L160.879 163.973L185.81 178.672C192.062 188.519 195.733 192.774 196.825 191.436C197.745 190.308 197.323 189.072 196.935 187.934C196.632 187.047 196.35 186.219 196.738 185.547C197.624 184.014 202.629 184.892 207.343 185.929C212.058 186.965 210.967 184.649 209.965 183.44C205.509 179.845 199.794 176.559 192.818 173.583Z" fill="#B28B67"/>
<path fill-rule="evenodd" clip-rule="evenodd" d="M108.076 76.4534L115.394 75.1982C126.923 115.952 186.158 143.731 189.795 158.966C191.128 164.553 187.107 167.377 189.184 169.079L179.672 176.042C178.061 174.163 174.623 177.601 167.444 175.196C160.265 172.791 108.076 124.709 108.076 76.4534Z" fill="#8FC3EE"/>
<path fill-rule="evenodd" clip-rule="evenodd" d="M95.6722 67.9874C93.4684 67.8333 91.557 69.4949 91.4029 71.6987L91.0991 76.0432C77.3259 86.6424 43.1894 118.315 34.2939 177.275C33.3594 183.468 35.0493 186.786 36.3995 189.436C37.3231 191.249 38.0878 192.751 37.7448 194.647L50.1944 198.084C50.1944 196.683 51.7634 195.618 53.7877 194.244C56.7312 192.246 60.6371 189.594 62.0813 184.308C63.4503 179.298 65.4549 173.041 67.8498 166.08C68.076 175.299 69.8244 183.778 73.6331 190.8C83.1354 208.321 138.048 189.107 143.785 171.233C146.846 161.695 142.503 153.688 136.757 143.098C129.465 129.655 119.914 112.05 120.386 81.8709L120.953 73.765C121.107 71.5613 119.446 69.6499 117.242 69.4957L95.6722 67.9874Z" fill="#69AFE9"/>
</svg>
