<svg width="219" height="311" viewBox="0 0 219 311" fill="none" xmlns="http://www.w3.org/2000/svg">
<path fill-rule="evenodd" clip-rule="evenodd" d="M104.39 56.7293C112.733 56.7293 115.767 46.7402 120.507 41.2585C123.899 37.3364 129.687 38.5059 131.4 33.0151C135.708 19.208 124.177 9.49023 109.135 9.49023C94.0926 9.49023 83.95 18.013 81.76 30.825C79.57 43.6369 89.3476 56.7293 104.39 56.7293Z" fill="#191847"/>
<path fill-rule="evenodd" clip-rule="evenodd" d="M113.833 54.9323C118.56 57.7817 123.205 59.1585 125.385 58.5965C130.852 57.1871 131.355 37.1854 127.125 29.3C122.895 21.4147 101.148 17.9778 100.052 33.6011C99.6713 39.0235 101.948 43.8626 105.312 47.8112L99.2803 75.9253H116.8L113.833 54.9323Z" fill="#B28B67"/>
<path fill-rule="evenodd" clip-rule="evenodd" d="M101.191 22.6315C87.7712 35.7724 101.242 49.7395 104.933 49.7395C105.172 47.8435 105.898 45.9992 106.963 44.2438C106.398 43.5112 106.062 42.6001 106.062 41.6128C106.062 39.1936 108.075 37.2325 110.557 37.2325C111.332 37.2325 112.061 37.4238 112.698 37.7606C118.078 33.1719 124.826 29.973 128.176 29.344C134.004 28.25 114.611 9.49069 101.191 22.6315Z" fill="#191847"/>
<path fill-rule="evenodd" clip-rule="evenodd" d="M93.4404 136.519L120.911 226.332L134.218 302.712H144.652L130.591 136.519H93.4404Z" fill="#997659"/>
<path fill-rule="evenodd" clip-rule="evenodd" d="M83.6125 136.519C85.4783 185.831 83.2825 211.267 82.8648 215.747C82.4472 220.228 76.7289 249.278 63.1914 304.217L74.3095 300.398C95.7043 250.011 102.995 223.824 105.449 217.208C107.902 210.591 114.42 183.695 125 136.519H83.6125Z" fill="#B28B67"/>
<path fill-rule="evenodd" clip-rule="evenodd" d="M65.84 299.759C64.7594 299.308 63.4836 299.782 63.099 300.888C62.6039 302.311 62.0508 304.146 62.0508 305.237C62.0508 307.211 62.7087 311 62.7087 311C64.9994 311 103.882 311 103.882 311C103.882 311 105.487 305.694 102.029 305.271C98.5713 304.848 96.2841 304.507 96.2841 304.507L77.4009 296.088C76.8863 295.858 76.2839 296.099 76.0692 296.62L74.9449 299.347C74.9449 299.347 71.7439 300.841 69.7426 300.841C68.6831 300.841 67.0976 300.283 65.84 299.759Z" fill="#E4E4E4"/>
<path fill-rule="evenodd" clip-rule="evenodd" d="M134.46 299.759C133.379 299.308 132.104 299.782 131.719 300.888C131.224 302.311 130.671 304.146 130.671 305.237C130.671 307.211 131.329 311 131.329 311C133.619 311 172.502 311 172.502 311C172.502 311 174.107 305.694 170.649 305.271C167.191 304.848 164.904 304.507 164.904 304.507L146.021 296.088C145.506 295.858 144.904 296.099 144.689 296.62L143.565 299.347C143.565 299.347 140.364 300.841 138.363 300.841C137.303 300.841 135.718 300.283 134.46 299.759Z" fill="#E4E4E4"/>
<path fill-rule="evenodd" clip-rule="evenodd" d="M89.79 136.519L101.47 182.278H137.145L131.826 136.519H89.79Z" fill="#E1B1F0"/>
<path fill-rule="evenodd" clip-rule="evenodd" d="M83.2203 136.519C77.4556 153.799 81.0303 182.278 81.0303 182.278H117.436L127.446 136.519H83.2203Z" fill="#E8C4F4"/>
<path fill-rule="evenodd" clip-rule="evenodd" d="M178.391 145.103L157.712 124.928L150.843 136.813L172.347 149.492C177.739 157.986 180.906 161.656 181.847 160.502C182.641 159.529 182.277 158.463 181.942 157.481C181.681 156.716 181.437 156.002 181.772 155.423C182.536 154.1 186.854 154.857 190.92 155.751C194.986 156.645 194.045 154.648 193.181 153.605C189.338 150.503 184.408 147.669 178.391 145.103ZM56.4997 174.415C58.639 170.074 65.924 127.773 65.924 127.773L81.1791 127.833C81.1791 127.833 67.0501 173.447 65.924 176.238C64.4612 179.863 66.946 185.131 68.631 188.703C68.8917 189.255 69.1332 189.767 69.338 190.226C67 191.273 65.8769 190.008 64.6929 188.675C63.3556 187.169 61.9406 185.576 58.6094 187.126C57.3224 187.724 56.1046 188.432 54.9148 189.124C50.8049 191.513 47.0294 193.708 41.8932 190.538C41.079 190.036 40.1867 188.144 42.3426 186.666C47.7137 182.983 55.4539 176.536 56.4997 174.415Z" fill="#B28B67"/>
<path fill-rule="evenodd" clip-rule="evenodd" d="M109.277 63.7565L115.589 62.6737C126.457 89.8243 145.432 114.494 172.512 136.683L152.049 161.546C124.971 129.952 108.281 97.3552 109.277 63.7565Z" fill="#EFA5A8"/>
<path fill-rule="evenodd" clip-rule="evenodd" d="M81.7598 143.09H137.97C137.97 143.09 118.436 95.5911 118.436 62.3908L101.48 59.8643C88.1545 81.2973 84.3913 107.686 81.7598 143.09Z" fill="#DDE3E9"/>
<path fill-rule="evenodd" clip-rule="evenodd" d="M56.21 167.181C62.3572 97.8237 101.108 59.8643 101.108 59.8643L101.121 59.8762C101.124 59.8722 101.126 59.8683 101.128 59.8643H102.235C104.221 59.9327 108.286 60.1108 108.286 60.1108L112.384 71.8202C113.034 93.2348 119.976 158.133 119.976 158.133H83.1834C83.246 161.109 83.3846 164.126 83.6073 167.181H56.21Z" fill="#F3BBBE"/>
<path fill-rule="evenodd" clip-rule="evenodd" d="M83.1891 158.42C82.8954 145.462 84.0449 133.295 85.9625 122.284C86.9655 135.35 89.0616 151.071 93.4394 158.42H83.1891Z" fill="black" fill-opacity="0.1"/>
<path fill-rule="evenodd" clip-rule="evenodd" d="M91.3301 135.789L109.499 127.342V135.789H91.3301Z" fill="white" fill-opacity="0.2"/>
</svg>
