<svg width="1135" height="433" viewBox="0 0 1135 433" fill="none" xmlns="http://www.w3.org/2000/svg">
<path fill-rule="evenodd" clip-rule="evenodd" d="M978 84.7069C989.429 84.7069 993.586 71.0241 1000.08 63.5153C1004.72 58.143 1012.65 59.7449 1015 52.2238C1020.9 33.3111 1005.11 20 984.5 20C963.894 20 950 31.6743 947 49.2238C944 66.7733 957.394 84.7069 978 84.7069Z" fill="#191847"/>
<path fill-rule="evenodd" clip-rule="evenodd" d="M990.935 82.2443C997.411 86.1475 1003.77 88.0333 1006.76 87.2635C1014.25 85.333 1014.94 57.9351 1009.14 47.1339C1003.35 36.3328 973.558 31.625 972.057 53.0255C971.536 60.4529 974.654 67.0814 979.262 72.4901L971 111H995L990.935 82.2443Z" fill="#B28B67"/>
<path fill-rule="evenodd" clip-rule="evenodd" d="M973.616 38.0002C955.233 56.0002 973.687 75.132 978.743 75.132C979.069 72.5349 980.065 70.0086 981.524 67.6041C980.749 66.6006 980.29 65.3527 980.29 64.0002C980.29 60.6865 983.046 58.0002 986.446 58.0002C987.508 58.0002 988.507 58.2622 989.379 58.7236C996.75 52.4381 1005.99 48.0563 1010.58 47.1947C1018.57 45.6961 992 20.0002 973.616 38.0002Z" fill="#191847"/>
<path fill-rule="evenodd" clip-rule="evenodd" d="M963 194L1000.63 317.024L1018.86 421.648H1033.15L1013.89 194H963Z" fill="#997659"/>
<path fill-rule="evenodd" clip-rule="evenodd" d="M949.538 194C952.093 261.547 949.085 296.389 948.513 302.526C947.941 308.663 940.108 348.455 921.563 423.708L936.794 418.478C966.102 349.459 976.089 313.589 979.45 304.526C982.812 295.463 991.739 258.621 1006.23 194H949.538Z" fill="#B28B67"/>
<path fill-rule="evenodd" clip-rule="evenodd" d="M924.45 417.284C923.378 416.813 922.104 417.29 921.705 418.391C920.977 420.398 920 423.409 920 425.106C920 427.811 920.901 433 920.901 433C924.039 433 977.303 433 977.303 433C977.303 433 979.502 425.732 974.765 425.152C970.028 424.573 966.895 424.106 966.895 424.106L940.68 412.419C940.165 412.189 939.563 412.43 939.348 412.951L937.663 417.039C937.663 417.039 933.278 419.085 930.537 419.085C928.868 419.085 926.246 418.074 924.45 417.284Z" fill="#E4E4E4"/>
<path fill-rule="evenodd" clip-rule="evenodd" d="M1018.45 417.284C1017.38 416.813 1016.1 417.29 1015.71 418.391C1014.98 420.398 1014 423.409 1014 425.106C1014 427.811 1014.9 433 1014.9 433C1018.04 433 1071.3 433 1071.3 433C1071.3 433 1073.5 425.732 1068.76 425.152C1064.03 424.573 1060.9 424.106 1060.9 424.106L1034.68 412.419C1034.17 412.189 1033.56 412.43 1033.35 412.951L1031.66 417.039C1031.66 417.039 1027.28 419.085 1024.54 419.085C1022.87 419.085 1020.25 418.074 1018.45 417.284Z" fill="#E4E4E4"/>
<path fill-rule="evenodd" clip-rule="evenodd" d="M958 194L974 256.68H1022.87L1015.58 194H958Z" fill="#69A1AC"/>
<path fill-rule="evenodd" clip-rule="evenodd" d="M949 194C941.103 217.671 946 256.68 946 256.68H995.871L1009.58 194H949Z" fill="#89C5CC"/>
<path fill-rule="evenodd" clip-rule="evenodd" d="M1079.37 205.757L1051.04 178.122L1041.64 194.402L1071.09 211.769C1078.48 223.404 1082.82 228.432 1084.11 226.851C1085.19 225.519 1084.7 224.058 1084.24 222.713C1083.88 221.664 1083.55 220.686 1084 219.893C1085.05 218.082 1090.97 219.119 1096.54 220.343C1102.11 221.568 1100.82 218.832 1099.63 217.404C1094.37 213.155 1087.62 209.273 1079.37 205.757ZM912.398 245.908C915.329 239.963 925.308 182.019 925.308 182.019L946.206 182.102C946.206 182.102 926.851 244.582 925.308 248.405C923.304 253.371 926.708 260.587 929.016 265.48C929.374 266.237 929.704 266.938 929.985 267.567C926.782 269 925.244 267.268 923.622 265.441C921.79 263.379 919.851 261.196 915.288 263.319C913.525 264.139 911.857 265.109 910.227 266.056C904.597 269.329 899.425 272.335 892.389 267.994C891.274 267.306 890.052 264.714 893.005 262.689C900.363 257.644 910.966 248.814 912.398 245.908Z" fill="#B28B67"/>
<path fill-rule="evenodd" clip-rule="evenodd" d="M984.695 94.3321L993.342 92.8489C1008.23 130.039 1034.22 163.831 1071.32 194.225L1043.29 228.281C1006.19 185.005 983.33 140.355 984.695 94.3321Z" fill="#191847"/>
<path fill-rule="evenodd" clip-rule="evenodd" d="M947 203H1024C1024 203 997.241 137.938 997.241 92.4607L974.014 89C955.76 118.358 950.605 154.505 947 203Z" fill="#DDE3E9"/>
<path fill-rule="evenodd" clip-rule="evenodd" d="M912 236C920.421 140.996 973.504 89 973.504 89L973.522 89.0164C973.525 89.0109 973.529 89.0055 973.532 89H975.048C977.769 89.0937 983.338 89.3377 983.338 89.3377L988.95 105.377C989.841 134.71 999.351 223.606 999.351 223.606H948.95C949.036 227.682 949.225 231.815 949.531 236H912Z" fill="#2F3676"/>
<path fill-rule="evenodd" clip-rule="evenodd" d="M948.959 224C948.557 206.25 950.131 189.584 952.758 174.502C954.132 192.399 957.003 213.934 963 224H948.959Z" fill="black" fill-opacity="0.1"/>
<path fill-rule="evenodd" clip-rule="evenodd" d="M960.111 193L985 181.43V193H960.111Z" fill="white" fill-opacity="0.2"/>
<path fill-rule="evenodd" clip-rule="evenodd" d="M781.935 82.2443C788.411 86.1475 794.774 88.0333 797.76 87.2635C805.25 85.333 805.938 57.9351 800.143 47.1339C794.349 36.3328 764.558 31.625 763.057 53.0255C762.536 60.4529 765.654 67.0814 770.262 72.4901L762 111H786L781.935 82.2443Z" fill="#B28B67"/>
<path fill-rule="evenodd" clip-rule="evenodd" d="M783.135 55.3886C785.211 52.2975 787.204 49.9398 789.797 48.5706C800.348 48.7373 801.583 46.8458 801.583 40.4706C799.879 39.2512 793.866 37.1978 787.132 36.6202C783.697 35.6372 779.627 35.8221 775.707 37.4618C770.868 38.8349 766.77 41.7919 764.96 47.3279C758.412 58.6286 763.382 70.3923 770.08 74.4108C771.863 72.2985 773.419 70.2515 774.807 68.2919C773.692 67.2024 773 65.6819 773 63.9996C773 60.6859 775.686 57.9996 779 57.9996C779.243 57.9996 779.484 58.0142 779.72 58.0424C779.869 62.1854 780.482 76.2023 782.094 81.0711C783.995 86.8112 795.083 88.2206 798.951 88.2206C802.291 88.2206 802.178 85.0574 802.096 82.7904C802.084 82.464 802.073 82.1561 802.073 81.8789C802.073 81.2997 801.32 81.3012 800.469 81.3029C799.364 81.3051 798.094 81.3077 798.094 80.0397C798.094 78.6576 800.004 77.5974 801.713 76.6487C802.779 76.0568 803.767 75.5083 804.165 74.9521C805.418 73.1974 805.841 70.8307 803.949 70.8307C802.916 70.8307 801.497 71.4267 799.791 72.1437C797.215 73.2261 793.982 74.5843 790.426 74.5843C784.55 74.5843 783.152 55.6258 783.135 55.3886Z" fill="#191847"/>
<path fill-rule="evenodd" clip-rule="evenodd" d="M754 194L790.255 321.227L816.707 415H836L807.891 194H754Z" fill="#191847"/>
<path fill-rule="evenodd" clip-rule="evenodd" d="M744.304 194C743.466 259.574 740.606 295.34 739.726 301.298C738.845 307.256 725.532 345.156 699.786 415H719.772C752.549 347.997 770.845 310.096 774.662 301.298C778.479 292.5 790.258 256.734 808 194H744.304Z" fill="#2F3676"/>
<path fill-rule="evenodd" clip-rule="evenodd" d="M698 433L699 412L720 412C734.936 422.5 759 429 759 429V433H721L708 431V433H698Z" fill="#191847"/>
<path fill-rule="evenodd" clip-rule="evenodd" d="M814 433L815 412L836 412C850.936 422.5 875 429 875 429V433H837L824 431V433H814Z" fill="#191847"/>
<path fill-rule="evenodd" clip-rule="evenodd" d="M676.365 230.284C680.094 224.805 701.668 166.536 701.668 166.536L719.379 169.108C719.379 169.108 690.861 230.983 688.802 234.554C686.126 239.193 688.493 246.812 690.097 251.978C690.346 252.777 690.576 253.518 690.766 254.18C687.395 255.153 686.113 253.224 684.761 251.189C683.234 248.892 681.618 246.461 676.804 247.928C674.944 248.495 673.157 249.223 671.411 249.934C665.38 252.391 659.84 254.649 653.477 249.37C652.468 248.534 651.618 245.797 654.825 244.203C662.813 240.231 674.542 232.963 676.365 230.284ZM868.546 203.202L838.359 177.61L830.109 194.507L860.706 209.777C868.886 220.869 873.564 225.581 874.74 223.914C875.732 222.509 875.133 221.087 874.581 219.777C874.152 218.756 873.75 217.804 874.152 216.98C875.07 215.1 881.042 215.723 886.684 216.556C892.327 217.388 890.85 214.749 889.569 213.407C884.021 209.536 877.013 206.134 868.546 203.202Z" fill="#B28B67"/>
<path fill-rule="evenodd" clip-rule="evenodd" d="M775.695 94.3321L786.67 90.7027C801.558 127.893 823.761 163.876 860.857 194.27L851.684 210.097C819.081 190.892 788.219 175.973 775.695 147.155C771.492 137.483 775.352 105.897 775.695 94.3321Z" fill="#C5CFD6"/>
<path fill-rule="evenodd" clip-rule="evenodd" d="M738 199C738 199 785.157 204 812.236 199C814.473 198.588 814.826 194.843 813.788 192.301C797.636 152.725 786.56 118.192 786.56 90.7031C782.115 92.9444 771 91.3749 771 91.3749C751.086 119.703 741.933 152.207 738 199Z" fill="#323337"/>
<path fill-rule="evenodd" clip-rule="evenodd" d="M765.294 89.0001C765.808 88.6538 766.079 88.4814 766.079 88.4814L766.05 89.0001H774.349C774.766 91.4527 775.377 100.543 776.267 113.798C779.504 161.965 786.436 265.127 801.191 304.606H699.386C701.534 259.722 718.082 206.047 735.225 160.47C722.575 173.056 707.802 194.153 695.862 229.273L676.793 224.378C696.226 140.638 753.162 97.4518 764.21 89.7439C764.318 89.4947 764.425 89.2467 764.532 89.0001H765.294Z" fill="#DDE3E9"/>
<path fill-rule="evenodd" clip-rule="evenodd" d="M573.935 82.2443C580.411 86.1475 586.774 88.0333 589.76 87.2635C597.25 85.333 597.938 57.9351 592.143 47.1339C586.349 36.3328 556.558 31.625 555.057 53.0255C554.536 60.4529 557.654 67.0814 562.262 72.4901L554 111H578L573.935 82.2443Z" fill="#B28B67"/>
<path fill-rule="evenodd" clip-rule="evenodd" d="M582.663 35.37C579.384 34.37 574.623 34.0308 572.62 34.2603C573.76 31.5308 574.212 28.4899 573.843 25.5291C573.485 22.6521 572.199 20.2024 571.01 17.6354C570.462 16.4522 569.841 15.2754 568.915 14.3704C567.972 13.4483 566.778 12.8397 565.526 12.5494C564.244 12.2522 562.905 12.2769 561.621 12.5466C561.054 12.6659 560.544 12.9255 559.987 13.0698C559.417 13.2176 559.141 12.8608 558.727 12.5021C557.729 11.638 556.267 11.2114 555.006 11.0587C553.59 10.8875 552.121 11.101 550.771 11.5664C549.457 12.0194 548.194 12.7551 547.244 13.8268C546.821 14.3039 546.437 14.8469 546.188 15.4464C546.085 15.6924 546.068 15.8381 545.823 15.9283C545.596 16.0117 545.33 16.0141 545.096 16.0935C542.83 16.8609 540.893 18.6117 539.838 20.8595C539.223 22.1709 538.931 24.4798 539.011 27.0677C539.091 29.6556 541.428 36.4081 543.613 38.8711C545.564 41.0695 548.431 42.5203 551.199 43.1553C549.362 45.2548 548.139 47.8784 547.235 50.5467C546.253 53.445 545.645 56.4566 545.421 59.5251C545.207 62.4405 545.188 65.5235 545.871 68.3767C546.51 71.0448 547.878 73.2337 550.16 74.6223C551.206 75.2584 552.331 75.7363 553.462 76.173C554.577 76.6034 555.696 77.0219 556.864 77.2634C559.075 77.7203 561.622 77.6418 563.325 75.8822C563.938 75.2479 564.613 74.4508 565.061 73.6759C565.222 73.3972 565.319 73.215 565.124 72.9426C564.889 72.6164 564.51 72.3664 564.209 72.1112C562.493 70.6561 561.43 68.7135 561.162 66.4049C560.89 64.0626 561.52 61.0393 563.797 60.017C566.608 58.7552 569.704 60.2036 572.202 61.5537C573.264 57.806 575.445 54.4315 578.863 52.7124C582.645 50.8105 586.984 50.5879 590.871 48.9561C591.884 48.5309 592.915 48.0482 593.661 47.1818C593.972 46.8197 594.338 46.35 594.462 45.871C594.626 45.242 594.22 44.7145 593.906 44.2241C592.245 41.6236 585.943 36.37 582.663 35.37Z" fill="#191847"/>
<path fill-rule="evenodd" clip-rule="evenodd" d="M548 194L622.306 318.227L678.015 423.25H690.014L596.674 194L548 194Z" fill="#997659"/>
<path fill-rule="evenodd" clip-rule="evenodd" d="M673.45 417.284C672.378 416.813 671.104 417.29 670.705 418.391C669.977 420.398 669 423.409 669 425.106C669 427.811 669.901 433 669.901 433C673.039 433 726.303 433 726.303 433C726.303 433 728.502 425.732 723.765 425.152C719.028 424.573 715.895 424.106 715.895 424.106L689.68 412.419C689.165 412.189 688.563 412.43 688.348 412.951L686.663 417.039C686.663 417.039 682.278 419.085 679.537 419.085C677.868 419.085 675.246 418.074 673.45 417.284Z" fill="#E4E4E4"/>
<path fill-rule="evenodd" clip-rule="evenodd" d="M662.544 406.433L685.684 399.433C685.684 399.433 670.476 353.971 648.406 299.374C626.336 244.778 601 194 601 194H535.645C535.645 194 563.812 258.232 595.366 310.725C626.921 363.219 662.544 406.433 662.544 406.433Z" fill="#DB2721"/>
<path fill-rule="evenodd" clip-rule="evenodd" d="M543.116 194C536.103 237.654 522.577 293.427 521.3 295.149C520.449 296.296 489.812 306.562 429.39 325.947L431.982 336.528C504.036 326.132 542.002 318.066 545.881 312.331C551.698 303.728 580.748 235.763 592 194H543.116Z" fill="#B28B67"/>
<path fill-rule="evenodd" clip-rule="evenodd" d="M450.63 316.8L455.195 333.842C509.088 338.569 542.108 335.153 554.258 323.596C566.408 312.039 580.255 268.84 595.799 194H533.479C523.63 255.284 518.124 287.212 516.961 289.785C515.797 292.357 493.687 301.363 450.63 316.8Z" fill="#FF4133"/>
<path fill-rule="evenodd" clip-rule="evenodd" d="M433.93 324.074C434.208 322.937 433.517 321.765 432.364 321.563C430.26 321.195 427.126 320.756 425.455 321.05C422.791 321.52 417.837 323.309 417.837 323.309C418.382 326.399 427.631 378.854 427.631 378.854C427.631 378.854 435.171 379.757 434.919 374.991C434.667 370.226 434.583 367.059 434.583 367.059L441.54 339.213C441.676 338.666 441.335 338.115 440.784 337.994L436.466 337.044C436.466 337.044 433.69 333.081 433.214 330.381C432.924 328.738 433.464 325.98 433.93 324.074Z" fill="#E4E4E4"/>
<path fill-rule="evenodd" clip-rule="evenodd" d="M633.347 112.69L598.638 131.7L611.455 145.458L636.676 122.365C649.963 118.704 656.039 116.025 654.904 114.329C653.948 112.9 652.405 112.949 650.984 112.995C649.878 113.031 648.845 113.064 648.22 112.394C646.794 110.863 649.515 105.51 652.314 100.541C655.114 95.5726 652.12 96.0051 650.409 96.7198C644.807 100.512 639.12 105.835 633.347 112.69ZM668.246 139.364L653 147.74L653.868 163.04C653.868 163.04 663.743 155.913 672.238 153.544C683.07 150.524 687.453 148.218 692.746 141.473C695.578 137.864 697.982 130.61 695.286 128.248C694.252 127.341 690.399 129.482 686.468 131.667C683.472 133.332 680.43 135.022 678.556 135.408C676.033 135.927 676.329 132.657 676.565 130.044C676.734 128.17 676.873 126.633 675.918 127.077C671.455 127.154 668.246 139.364 668.246 139.364Z" fill="#997659"/>
<path fill-rule="evenodd" clip-rule="evenodd" d="M581.734 127.466C593.892 127.337 610.104 124.769 627.403 113.789L634.196 128.939C622.264 140.781 605.487 150.51 590.816 150.098C579.256 149.773 573.347 135.789 581.734 127.466Z" fill="#2026A2"/>
<path fill-rule="evenodd" clip-rule="evenodd" d="M548.944 231.259C537.386 229.752 526.766 228.367 520.473 229.606C513.411 206.673 519.275 192.234 524.688 178.905C527.95 170.871 531.049 163.241 531.055 154.397C531.075 128.642 551.754 89 554.797 89H555.67H579.783H582.544C583.784 104.937 589.079 122.193 594.407 139.56C595.651 143.615 596.898 147.677 598.095 151.729C618.26 156.307 663.036 140.373 663.036 140.373C663.036 140.373 674.339 163.759 673.486 173.717C647.424 187.331 625.086 193.401 606.683 193.802C607.268 204.721 605.939 215.112 601.474 224.606C595.491 237.327 570.576 234.079 548.944 231.259Z" fill="#1F28CF"/>
<path fill-rule="evenodd" clip-rule="evenodd" d="M364.935 82.2443C371.411 86.1475 377.774 88.0333 380.76 87.2635C388.25 85.333 388.938 57.9351 383.143 47.1339C377.349 36.3328 347.558 31.625 346.057 53.0255C345.536 60.4529 348.654 67.0814 353.262 72.4901L345 111H369L364.935 82.2443Z" fill="#B28B67"/>
<path fill-rule="evenodd" clip-rule="evenodd" d="M369.464 34.6853C366.301 34.1665 357.784 33.8099 356.213 33.8101C355.21 33.8101 354.122 34.0394 353.527 33.1178C353.041 32.3631 353.219 31.0867 353.074 30.2109C352.905 29.1935 352.665 28.1892 352.423 27.1874C351.733 24.3369 350.69 21.625 349.231 19.0788C346.493 14.3019 342.481 10.5601 337.417 8.38278C331.824 5.97866 325.496 5.42817 319.48 5.91581C313.043 6.43752 307.216 8.56259 301.138 10.5624C295.346 12.4681 289.28 13.2182 283.222 12.2876C277.118 11.35 272.507 8.04203 267.359 4.90232C262.089 1.68801 256.066 -0.414264 249.835 0.0689985C244.02 0.520259 238.659 2.92161 233.85 6.12947C229.351 9.13081 225.638 12.7418 223.542 17.824C221.287 23.2909 221.289 29.2918 224.997 34.1233C230.372 41.1265 240.35 42.9376 248.651 42.7575C253.453 42.6537 258.168 41.7772 262.701 40.1828C268.747 38.0564 273.971 34.4523 279.627 31.528C282.281 30.1558 285.025 29.0288 287.901 28.217C290.691 27.4289 293.44 27.0675 295.966 28.7533C298.639 30.5367 301.034 32.2885 304.092 33.4049C307.026 34.476 310.133 35.075 313.258 35.0509C319.339 35.0039 325.333 33.1093 331.239 31.8402C336.054 30.8056 341.207 29.7743 346.117 30.769C348.166 31.1841 351.159 32.041 351.899 34.1702C339.444 36.4274 334.553 51.8302 338.064 63.1372C339.959 69.24 351.35 76.3742 355.779 73.1658C358.585 71.1333 356.881 68.4648 355.779 66.7033C353.668 63.3299 352.945 58.9967 356.852 56.648C360.222 54.6224 363.765 59.4327 363.832 59.4274C364.758 59.3544 372.76 54.8285 378.274 48.2241C383.713 48.5466 384.539 44.96 383.24 42.0269C381.941 39.0938 373.834 35.4024 369.464 34.6853Z" fill="#191847"/>
<path fill-rule="evenodd" clip-rule="evenodd" d="M325.644 194C327.447 218.61 443.606 291.064 444.284 293.097C444.736 294.452 408.128 378.778 408.128 378.778L418.282 382.724C418.282 382.724 474.432 293.416 471.548 283.9C467.419 270.276 381.422 194.262 381.422 194.262L325.644 194Z" fill="#B28B67"/>
<path fill-rule="evenodd" clip-rule="evenodd" d="M410.8 366.082L427.379 372.117C462.336 332.675 476.038 300.131 473.54 283.55C471.042 266.968 383.724 194.061 383.724 194.061L324.455 194.061C326.477 251.053 434.143 293.314 435.583 295.742C437.023 298.171 422.851 321.957 410.8 366.082Z" fill="#2F3676"/>
<path fill-rule="evenodd" clip-rule="evenodd" d="M407.379 376.737C406.533 375.928 405.173 375.941 404.421 376.838C403.051 378.476 401.103 380.971 400.522 382.565C399.597 385.107 398.669 390.292 398.669 390.292C401.618 391.365 451.67 409.582 451.67 409.582C451.67 409.582 456.222 403.504 451.969 401.34C447.716 399.175 444.931 397.665 444.931 397.665L424.294 377.717C423.889 377.325 423.241 377.345 422.861 377.761L419.88 381.026C419.88 381.026 415.059 381.449 412.483 380.511C410.915 379.94 408.796 378.094 407.379 376.737Z" fill="#E4E4E4"/>
<path fill-rule="evenodd" clip-rule="evenodd" d="M339 194L287.254 318.227L236.396 423.25H248.395L379.673 194H339Z" fill="#997659"/>
<path fill-rule="evenodd" clip-rule="evenodd" d="M238.45 417.284C237.378 416.813 236.104 417.29 235.705 418.391C234.977 420.398 234 423.409 234 425.106C234 427.811 234.901 433 234.901 433C238.039 433 291.303 433 291.303 433C291.303 433 293.502 425.732 288.765 425.152C284.028 424.573 280.895 424.106 280.895 424.106L254.68 412.419C254.165 412.189 253.563 412.43 253.348 412.951L251.663 417.039C251.663 417.039 247.278 419.085 244.537 419.085C242.868 419.085 240.246 418.074 238.45 417.284Z" fill="#E4E4E4"/>
<path fill-rule="evenodd" clip-rule="evenodd" d="M240.988 401.433L267.65 406.433C288.266 376.125 374.54 251.852 384 194H324.644C293.055 235.821 260.639 370.624 240.988 401.433Z" fill="#5C63AB"/>
<path fill-rule="evenodd" clip-rule="evenodd" d="M465.235 150.704L429 166.617L440.57 181.439L467.707 160.633C481.262 158.143 487.549 156.004 486.566 154.216C485.738 152.709 484.197 152.624 482.778 152.545C481.672 152.484 480.64 152.427 480.076 151.705C478.789 150.056 481.966 144.961 485.188 140.255C488.41 135.549 485.39 135.719 483.623 136.282C477.711 139.572 471.582 144.379 465.235 150.704ZM303 175.066L282.508 171C268.611 207.63 260.326 227.702 257.652 231.218C255.692 233.796 243.603 240.437 235.42 243.984C232.135 245.407 232.841 248.183 233.804 249.071C239.88 254.672 245.529 252.709 251.678 250.572C253.459 249.953 255.281 249.32 257.167 248.851C262.05 247.639 263.536 250.15 264.94 252.523C266.184 254.624 267.363 256.616 270.779 255.821C270.624 255.151 270.433 254.4 270.227 253.589C268.895 248.349 266.931 240.62 269.845 236.13C271.34 233.826 282.392 213.471 303 175.066Z" fill="#B28B67"/>
<path fill-rule="evenodd" clip-rule="evenodd" d="M358.695 94.3321L367.342 92.8489C386.177 111.119 393.862 155.012 406.414 160.823C418.281 166.316 435.104 161 455.1 153.823L461.224 167.505C443.055 187.161 404.349 203.767 388.66 194.287C363.577 179.13 357.786 124.994 358.695 94.3321Z" fill="#DB2721"/>
<path fill-rule="evenodd" clip-rule="evenodd" d="M321 203C321 203 373.008 203 397.511 203C401.008 203 400.349 197.952 399.843 195.404C394.011 166.004 371.241 134.312 371.241 92.4607L349.172 89C330.917 118.358 324.605 154.505 321 203Z" fill="#DDE3E9"/>
<path fill-rule="evenodd" clip-rule="evenodd" d="M348 89H347.748C298.247 119.504 268.331 166.791 258 230.859L274.037 234C284.661 221.623 297.771 201.368 313.369 173.233C308.583 190.181 305.09 207.563 304 224H372.872C386.205 190.305 356.486 89 356.486 89H351.731H348Z" fill="#FF4133"/>
<path fill-rule="evenodd" clip-rule="evenodd" d="M155.5 34C143.626 34 134 43.6259 134 55.5V76.5C134 87.5658 142.36 96.679 153.109 97.8685C153.111 97.9197 153.114 97.971 153.117 98.0225H182.117C186.701 93.5438 182.209 64.9923 178.762 52.2902C177.212 41.9385 168.283 34 157.5 34H155.5Z" fill="#191847"/>
<path fill-rule="evenodd" clip-rule="evenodd" d="M156.935 82.2443C163.411 86.1475 169.774 88.0333 172.76 87.2635C180.25 85.333 180.938 57.9351 175.143 47.1339C169.349 36.3328 139.558 31.625 138.057 53.0255C137.536 60.4529 140.654 67.0814 145.262 72.4901L137 111H161L156.935 82.2443Z" fill="#B28B67"/>
<path fill-rule="evenodd" clip-rule="evenodd" d="M134.881 53.1504C135.578 52.4614 136.252 51.7947 136.921 51.1981L136.889 50.4207C136.889 50.4207 144.421 35 156.001 35C167.571 35 171.23 40.3787 174.34 44.9508L174.349 44.9631C172.722 50.5452 167.819 52.8037 162.274 55.3579C159.887 56.4574 157.381 57.6117 154.966 59.1095C154.02 58.341 152.814 57.8804 151.5 57.8804C148.462 57.8804 146 60.3428 146 63.3804C146 66.418 148.462 68.8804 151.5 68.8804C151.584 68.8804 151.667 68.8785 151.75 68.8748C152.856 80.7528 152.413 94.3173 149.117 97.5371H120.117C119.285 83.0731 123.026 78.947 126.85 74.7307C130.447 70.7635 134.117 66.7166 134.117 53.9028C134.375 53.6506 134.63 53.3991 134.881 53.1505L134.881 53.1504Z" fill="#191847"/>
<path fill-rule="evenodd" clip-rule="evenodd" d="M98.4082 292.088C98.4082 292.088 134.392 302.152 160.5 302.152C186.608 302.152 209 286.653 209 286.653C209 286.653 173.787 276.322 151 276.322C128.214 276.322 98.4082 292.088 98.4082 292.088Z" fill="#1F28CF"/>
<path fill-rule="evenodd" clip-rule="evenodd" d="M181.267 311.824C181.036 311.477 180.84 311.098 180.685 310.689C177.479 302.208 126.117 210.726 121 194H178.826C182.717 206.717 200.227 286.52 202.691 302.442C210.467 327.557 226.475 408.895 228.519 414.53C230.669 420.458 218.572 426.633 215.349 419.346C210.22 407.75 197.999 375.665 192.557 356.074C187.456 337.708 183.302 321.185 181.267 311.824Z" fill="#997659"/>
<path fill-rule="evenodd" clip-rule="evenodd" d="M133.957 322.994C110.475 328.928 24.5839 339.658 18.6896 341.341C12.6263 343.072 7.30992 330.574 14.8045 327.867C26.7297 323.559 59.589 313.606 79.5117 309.544C95.5363 306.277 110.159 303.611 119.976 302.05C119.144 274.473 115.343 208.294 117.835 194H169C166.61 207.707 146.41 307.718 142.655 317.729C141.464 321.302 137.909 322.882 133.957 322.994Z" fill="#B28B67"/>
<path fill-rule="evenodd" clip-rule="evenodd" d="M16.9302 327.074C17.2085 325.937 16.5172 324.765 15.3639 324.563C13.2601 324.195 10.1259 323.756 8.45476 324.05C5.79093 324.52 0.836865 326.309 0.836865 326.309C1.38176 329.399 10.6309 381.854 10.6309 381.854C10.6309 381.854 18.1705 382.757 17.9187 377.991C17.6669 373.226 17.5828 370.059 17.5828 370.059L24.5399 342.213C24.6764 341.666 24.3347 341.115 23.7845 340.994L19.4664 340.044C19.4664 340.044 16.6901 336.081 16.214 333.381C15.9242 331.738 16.4637 328.98 16.9302 327.074Z" fill="#E4E4E4"/>
<path fill-rule="evenodd" clip-rule="evenodd" d="M214.45 417.284C213.378 416.813 212.104 417.29 211.705 418.391C210.977 420.398 210 423.409 210 425.106C210 427.811 210.901 433 210.901 433C214.039 433 267.303 433 267.303 433C267.303 433 269.502 425.732 264.765 425.152C260.028 424.573 256.895 424.106 256.895 424.106L230.68 412.419C230.165 412.189 229.563 412.43 229.348 412.951L227.663 417.039C227.663 417.039 223.278 419.085 220.537 419.085C218.868 419.085 216.246 418.074 214.45 417.284Z" fill="#E4E4E4"/>
<path fill-rule="evenodd" clip-rule="evenodd" d="M118 194C118 194 151.82 184.324 182 194C189 225.938 206.009 238.614 209 287.579C175 304.473 133 275.531 98.0001 292.005C88.0001 268.961 102 213.465 118 194Z" fill="#2B44FF"/>
<path fill-rule="evenodd" clip-rule="evenodd" d="M254.483 148.925L215 154.311L222.084 172L254.121 159.299C267.93 160.661 274.607 160.333 274.153 158.315C273.77 156.613 272.302 156.099 270.95 155.626C269.897 155.257 268.914 154.913 268.569 154.051C267.781 152.083 272.269 148.003 276.693 144.315C281.118 140.627 278.148 139.948 276.281 140.003C269.647 141.558 262.381 144.532 254.483 148.925ZM62.3983 245.908C65.3287 239.963 90.9701 163.45 90.9701 163.45L112.868 163.532C112.868 163.532 76.8509 244.583 75.3083 248.406C73.3043 253.372 76.7083 260.587 79.0164 265.48C79.3735 266.237 79.7044 266.938 79.9849 267.567C76.7822 269 75.2438 267.268 73.6218 265.442C71.7899 263.379 69.8514 261.197 65.2882 263.319C63.5253 264.14 61.857 265.109 60.2271 266.057C54.5971 269.329 49.4251 272.336 42.3894 267.994C41.2739 267.306 40.0516 264.715 43.0049 262.69C50.3627 257.645 60.9656 248.815 62.3983 245.908Z" fill="#997659"/>
<path fill-rule="evenodd" clip-rule="evenodd" d="M150.949 93.9996L168.094 95.1418C172.317 133.343 195.316 157.472 246.811 149.304L253.652 198.498C205.523 204.718 163.313 185.449 154.662 133.278C152.423 119.773 150.655 105.717 150.949 93.9996Z" fill="#AFB9C5"/>
<path fill-rule="evenodd" clip-rule="evenodd" d="M65.4014 236C77.3051 172.664 102.43 123.664 140.776 89H142.421H142.477L142.491 89.0159L168.467 94.9653C168.467 126.169 175.409 149.485 182.084 171.9C184.966 181.58 187.798 191.093 190 201H119.843C118.855 212.351 118.248 224.018 117.932 236H65.4014Z" fill="#C5CFD6"/>
<path fill-rule="evenodd" clip-rule="evenodd" d="M119.844 201C121.856 177.891 125.449 156.09 131.388 135.599C130.086 157.513 129.725 184.698 134.103 201H119.844Z" fill="black" fill-opacity="0.1"/>
</svg>
