<svg width="215" height="398" viewBox="0 0 215 398" fill="none" xmlns="http://www.w3.org/2000/svg">
<path fill-rule="evenodd" clip-rule="evenodd" d="M204.581 1.33415C204.098 0.94624 202.952 0.808691 202.419 0.692486C200.203 0.21005 197.919 0 195.66 0C188.692 0.0115189 181.612 0.766681 174.76 2.07373C170.41 2.90343 165.151 5.69573 160.823 4.17931C153.284 1.53709 145.665 1.66685 138.512 5.43893C131.973 8.88815 127.008 15.439 124.111 22.5173C123.674 23.5859 121.901 27.5185 121.399 30.1696C121.184 30.7116 120.978 31.2574 120.792 31.8113C120.265 33.384 119.792 34.9845 119.352 36.5879C119.164 37.272 118.692 38.7823 119.253 39.0743C118.356 40.9007 117.562 42.7831 116.9 44.7264C114.976 50.378 112.871 56.5776 112.195 62.5677C111.945 64.7858 111.935 67.0167 112.168 69.2392C112.283 70.3375 112.235 72.5464 112.91 73.3815C114.341 75.1537 115.076 72.6728 114.914 71.4911C113.682 62.4847 116.062 54.0272 118.881 45.5611C120.705 40.0866 123.701 35.0783 127.057 30.5426C129.773 26.8711 132.687 23.9799 136.41 21.5457C140.964 18.5691 145.832 16.1626 150.655 13.7488C153.827 12.1605 157.003 10.615 160.264 9.24659C160.989 8.94202 162.13 8.16145 162.934 8.1584C164.634 8.15162 167.043 9.53693 168.685 10.0522C174.087 11.7479 179.557 13.9188 185.14 14.7848C188.72 15.3407 192.075 14.715 195.424 13.3978C195.766 13.2636 196.339 12.9177 197.042 12.4238C199.528 11.3678 201.88 10.0387 203.928 8.12147C205.108 7.01668 206.178 5.58902 207.155 4.2823C207.447 3.89168 207.576 3.4438 207.58 3.01828C207.802 2.89055 207.948 2.74149 207.982 2.56735C208.225 1.2813 206.004 1.25759 204.581 1.33415Z" fill="#89C5CC"/>
<path fill-rule="evenodd" clip-rule="evenodd" d="M195.21 37.6598C192.187 36.9146 188.848 36.9717 185.769 37.0331C169.253 37.2865 153.034 46.1085 142.479 60.2047C133.493 72.205 131.022 87.1249 129.247 102.207C129.071 103.704 128.995 105.192 128.896 106.693C128.875 107.015 128.843 107.302 128.809 107.573C128.111 108.277 127.744 109.098 128.158 110C126.62 113.797 125.319 117.69 124.202 121.706C120.917 133.526 117.574 145.571 119.633 158C120.114 151.16 121.126 144.166 122.336 137.438C122.406 137.052 122.481 136.669 122.559 136.287C122.567 136.247 122.575 136.206 122.583 136.166C123.011 134.106 123.568 132.108 124.245 130.141C124.252 130.119 124.259 130.098 124.266 130.077C124.356 129.818 124.451 129.56 124.544 129.303C124.738 128.77 124.938 128.238 125.149 127.709C125.22 127.528 125.289 127.346 125.355 127.163C126.341 124.437 126.757 121.365 127.64 118.545C127.851 117.904 128.072 117.265 128.304 116.629C128.317 116.592 128.331 116.555 128.345 116.518C128.971 114.807 129.662 113.118 130.392 111.446C130.789 111.109 131.002 110.274 131.344 109.515C131.415 109.365 131.968 108.368 132.133 107.793C132.564 106.854 132.992 105.915 133.426 104.977C133.413 104.983 133.4 104.988 133.387 104.994C133.82 104.093 134.255 103.197 134.687 102.304C134.782 102.108 134.878 101.912 134.973 101.715C135.128 101.402 135.283 101.089 135.438 100.777C136.885 97.8562 138.419 94.9937 140.012 92.1668C140.58 91.158 141.938 89.7114 142.199 88.5786C142.208 88.5363 142.211 88.4973 142.216 88.4567C145.673 82.9794 149.653 77.9272 154.425 73.9241C153.848 74.6276 152.622 77.0151 152.298 77.4877C151.306 78.935 150.229 80.2822 149.147 81.6458C147.211 84.0886 145.321 86.6088 143.641 89.2739C140.57 94.1478 137.92 99.2772 135.415 104.51C135.391 104.54 135.365 104.569 135.343 104.601C134.084 106.352 133.291 108.998 132.385 111.001C135.971 109.127 139.937 107.906 143.618 106.242C147.289 104.583 150.86 102.735 154.307 100.566C158.889 97.6824 163.642 94.4268 167.972 90.7427C172.933 87.2707 177.102 82.4917 180.782 77.4768C185.136 71.5432 189.126 65.5577 191.594 58.353C192.807 54.8127 193.76 51.1211 194.326 47.3864C194.35 47.2235 194.382 47.047 194.416 46.8636C194.995 45.5737 195.512 44.2548 195.946 42.9056C196.635 40.7657 198.263 38.4118 195.21 37.6598Z" fill="#69A1AC"/>
<g opacity="0.6">
<path fill-rule="evenodd" clip-rule="evenodd" d="M214.716 310.152C224.22 375.476 -6.26895 418.085 -204.656 388.349C-403.043 358.614 -494.053 242.493 -399.386 180.62C-304.719 118.746 205.212 244.828 214.716 310.152Z" fill="#DDE3E9"/>
</g>
<path fill-rule="evenodd" clip-rule="evenodd" d="M202.141 103.376C198.5 100.701 193.658 100 189.301 100C172.283 100 156.287 106.84 142.469 117.032C134.897 122.616 128.123 129.728 122.143 137.132C118.691 141.407 115.614 146.03 113.435 151.173C111.964 154.644 110.955 158.261 110.271 161.991C109.437 166.537 108.775 171.175 108.475 175.797C108.357 177.617 107.381 187.274 110.174 187.438C110.158 187.676 110.155 187.903 110.172 188.106C104.107 198.38 100.359 210.42 96.8844 221.835C93.8611 231.769 91.1671 241.786 89.4182 252.063C87.1158 265.592 85.6035 279.326 84.8843 293.05C84.7299 295.999 84.6239 298.95 84.5326 301.903C84.4552 304.422 84.3768 306.941 84.3004 309.461C84.2152 312.284 83.7565 315.534 84.1709 318.34C84.5315 320.784 86.4842 320.414 86.5705 317.982C86.6748 315.045 86.6577 312.102 86.7763 309.163C86.9342 305.262 87.0967 301.361 87.273 297.461C88.4997 270.369 93.1017 243.675 101.595 218.084C105.032 207.728 108.97 197.925 114.032 188.345C118.483 179.922 123.836 171.767 129.308 164.173C134.627 156.792 140.156 149.583 146.673 143.33C151.961 138.256 157.778 133.835 163.757 129.722C171.352 124.498 178.932 119.401 187.159 115.391C191.435 113.307 195.792 111.441 200.102 109.44C200.877 109.081 201.708 108.732 202.454 108.315C204.942 106.925 204.123 104.832 202.141 103.376Z" fill="#C1DEE2"/>
<path fill-rule="evenodd" clip-rule="evenodd" d="M143.522 198C150.266 198 156.267 198.972 162.482 201.943C167.846 204.508 172.734 207.903 177.48 211.599C184.156 216.798 189.414 222.848 193.095 230.865C195.294 235.654 196.907 242.431 195.43 247.655C193.691 253.807 188.914 258.939 182.623 257.855C178.733 257.185 175.167 254.33 172.211 251.643C168.674 248.428 165.842 244.563 163.505 240.27C159.691 233.267 157.45 225.351 154.21 218.033C152.673 214.56 151.188 211.063 149.347 207.762C148.435 206.128 147.465 204.509 146.082 203.294C145.342 202.644 142.223 201.52 143.416 200.061C125.926 200.315 110.433 215.207 107.075 233.641C106.762 235.359 106.518 237.091 106.26 238.82C106.097 239.911 106.163 243.937 105.283 244.634C103.341 246.172 104.157 241.499 104.241 240.826C104.456 239.087 104.686 237.35 104.927 235.615C106.238 226.181 110.026 217.411 116.343 210.683C123.568 202.99 133.315 198 143.522 198Z" fill="#89C5CC"/>
</svg>
