<svg width="211" height="382" viewBox="0 0 211 382" fill="none" xmlns="http://www.w3.org/2000/svg">
<path fill-rule="evenodd" clip-rule="evenodd" d="M96.7262 271.699C94.4548 273.538 92.2271 275.417 90.0536 277.372C88.3973 278.862 85.4659 280.645 84.8713 282.903C84.2532 285.248 86.2046 287.444 87.7463 288.862C95.8984 296.362 105.078 301.433 116.374 302.276C133.768 303.574 148.905 299.133 163.996 290.393C174.597 284.254 181.619 275.173 183.153 262.91C195.777 268.157 207.987 275.389 218.363 284.265C223.483 288.645 227.892 293.497 231.971 298.876C234.583 302.321 237.11 305.822 239.455 309.458C240.474 311.037 241.511 313.838 243.193 314.748C245.169 315.817 247.557 314.142 247.459 311.945C247.377 310.117 245.403 307.996 244.48 306.502C242.947 304.021 241.391 301.555 239.752 299.141C237.101 295.234 234.361 291.382 231.372 287.725C224.655 279.509 216.108 272.722 207.249 266.935C190.252 255.832 171.599 248.837 150.918 248.244C138.201 247.879 127.504 252.224 116.629 258.712C109.859 262.752 102.87 266.724 96.7262 271.699Z" fill="#DDE3E9"/>
<path fill-rule="evenodd" clip-rule="evenodd" d="M261.68 217.996C248.428 204.349 235.13 190.871 220.325 178.854C211.599 171.773 202.404 165.334 193.398 158.62C194.437 159.53 195.456 160.467 196.451 161.426C193.64 159.518 189.96 158.439 186.979 156.673C183.655 154.703 180.477 152.449 177.36 150.177C171.276 145.744 165.283 141.226 159.029 137.024C152.061 132.343 144.84 128.017 137.754 123.512C131.739 119.689 125.651 115.504 119.217 112.379C115.71 110.675 112.196 108.656 108.674 106.879C107.496 106.285 95.5383 98.7342 95.5684 98.7115C96.2294 98.2134 102.247 101.041 103.177 101.421C105.896 102.531 108.495 103.859 111.109 105.183C109.674 102.354 108.539 99.3812 107.921 96.252C107.73 95.2861 106.2 88.2549 106.983 87.665C107.374 87.3703 111.188 99.9503 111.384 101.16C111.543 102.142 111.519 103.557 111.841 104.487C112.36 105.99 112.334 105.536 113.478 106.382C115.574 107.934 118.357 108.903 120.626 110.2C121.849 110.883 125.637 113.591 127.919 114.364C134.823 117.717 141.821 122.876 148.38 127.158C146.659 123.923 145.349 120.54 144.393 116.994C144.166 116.153 141.714 108.602 142.309 108.154C142.978 107.649 147.65 119.181 147.927 120.273C148.441 122.301 148.547 124.558 149.191 126.531C149.897 128.697 152.102 129.465 154.089 130.727C161.398 135.372 168.457 140.307 175.399 145.468C182.972 131.998 174.24 115.732 166.879 104.431C161.574 96.2853 154.432 89.3019 146.891 83.2054C136.827 75.0689 125.313 68.5688 113.812 62.6231C100.412 55.6952 85.9288 51.4027 70.8715 49.4197C62.9963 48.3824 54.9395 48.4114 46.9847 48.744C43.0988 48.9061 39.3689 49.4209 35.645 50.6882C33.9665 51.2602 32.3444 51.9809 30.7637 52.7878C29.5626 53.401 26.6572 54.0483 25.9666 54.9618C20.2821 62.3605 17.3739 69.7333 17.818 79.0306C18.2379 87.8316 21.0175 96.6372 24.7897 104.488C28.9907 113.229 34.3937 121.163 41.4599 127.822C46.8511 132.903 52.8785 137.324 58.8662 141.688C80.1624 157.208 107.162 170.707 134.745 167.239C143.673 166.117 152.165 162.994 160.101 158.751C161.971 157.752 163.83 156.74 165.595 155.56C166.785 154.764 169.967 151.178 171.164 151.048C172.804 150.869 176.339 154.207 177.879 155.223C189.577 162.945 200.97 171.086 212.123 179.556C223.99 188.568 235.274 198.193 246.227 208.27C250.885 212.557 255.513 216.853 260.037 221.283C261.089 222.314 263.664 226.11 265.574 226.281C266.781 226.39 267.595 225.359 267.423 224.242C267.123 222.3 263.036 219.393 261.68 217.996Z" fill="#C1DEE2"/>
<path fill-rule="evenodd" clip-rule="evenodd" d="M153.514 202.756C151.906 201.014 150.1 199.444 147.979 198.323C147.443 198.04 143.45 196.143 143.19 196.559C142.584 197.528 153.031 202.2 153.514 202.756ZM172.448 191.124C172.435 191.198 173.82 193.548 174.197 194.27C174.999 195.806 175.74 197.372 176.437 198.941C175.405 196.17 174.345 193.6 172.448 191.124ZM75.6148 210.25C74.2812 210.68 72.6778 208.987 74.4076 208.57C75.8073 208.235 75.7387 208.157 76.3672 207.029C76.8775 206.114 77.1919 204.997 77.6397 204.036C78.5896 201.998 79.6671 200.055 80.9898 198.234C83.8244 194.33 87.2781 190.967 91.1517 188.132C97.9119 183.186 105.492 178.665 113.532 176.393C126.317 172.782 140.867 172.558 153.672 175.063C161.602 176.613 168.849 179.309 174.115 185.694C176.747 188.885 178.813 192.623 179.716 196.74C179.952 197.816 179.908 199.012 180.203 200.066C180.656 201.685 180.456 201.254 182.35 201.569C184.419 201.913 186.486 202.265 188.552 202.622C193.962 203.557 199.403 204.551 204.675 206.07C206.41 206.569 208.106 207.18 209.764 207.889C211.018 208.425 216.009 210.109 216.616 211.738C217.626 214.447 214.243 213.219 213.191 212.629C212.27 212.112 211.325 211.63 210.366 211.186C207.951 210.068 205.434 209.203 202.861 208.515C200.081 207.771 197.243 207.216 194.416 206.66C191.78 206.142 189.135 205.671 186.485 205.22C185.014 204.97 183.541 204.726 182.068 204.483C181.564 204.4 180.677 203.964 180.744 204.619C177.647 204.022 174.298 204.108 171.144 203.943C167.28 203.742 163.402 203.576 159.526 203.697C156.73 203.785 153.931 203.968 151.15 204.344C149.524 204.563 147.925 204.884 146.33 205.291C145.454 205.515 142 205.988 141.522 206.752C141.727 206.424 145.54 206.742 146.025 206.723C147.966 206.651 149.892 206.458 151.825 206.242C155.414 205.842 159.004 205.632 162.603 205.663C162.59 206.294 160.131 207.42 159.531 207.839C158.185 208.778 156.896 209.803 155.693 210.926C153.575 212.905 151.038 215.357 149.573 217.702C150.005 217.011 152.135 216.112 152.891 215.584C154.103 214.738 155.289 213.835 156.412 212.87C157.448 211.979 158.415 211.017 159.366 210.034C160.317 209.05 161.608 207.006 162.857 206.351C162.933 206.311 163.477 206.741 163.787 206.595C164.099 206.448 164.487 205.711 164.567 205.681C165.73 205.232 167.939 205.79 169.162 205.847C172.333 205.993 175.501 206.184 178.67 206.358C179.652 206.412 180.486 206.189 180.857 206.913C181.252 207.686 180.528 209.716 180.322 210.557C179.558 213.681 178.201 216.483 176.065 218.903C172.064 223.438 167.131 226.46 161.558 228.482C140.211 236.226 117.502 239.328 96.1615 231.272C87.3269 227.937 74.0217 221.977 75.6148 210.25Z" fill="#89C5CC"/>
</svg>
