<svg width="211" height="442" viewBox="0 0 211 442" fill="none" xmlns="http://www.w3.org/2000/svg">
<path opacity="0.2" fill-rule="evenodd" clip-rule="evenodd" d="M158.981 10.101C161.636 8.78426 165.176 10.3114 163.7 13.7923C162.118 17.5199 156.269 17.5659 152.966 17.492C153.297 17.4747 154.361 14.0565 154.726 13.54C155.801 12.0162 157.348 10.912 158.981 10.101ZM128.406 78.0197C127.468 78.8216 128.329 78.0949 128.406 78.0197V78.0197ZM162.067 27.4075C163.655 28.6092 163.73 30.7324 162.431 32.1702C160.885 33.8818 158.064 33.8209 155.958 33.6553C155.006 33.5803 149.919 33.1795 151.125 32.3545C151.033 32.3892 150.839 32.4735 150.631 32.5881C150.52 32.9918 150.402 33.3941 150.28 33.7946C150.31 33.8119 150.336 33.8305 150.367 33.8477C150.333 33.8327 150.309 33.8165 150.278 33.8012C149.053 37.8044 147.31 41.6164 145.028 45.1829C145.881 44.8499 146.765 44.5976 147.661 44.485C150.315 44.1513 155.896 46.1908 152.926 49.6915C150.078 53.0474 145.649 49.4508 142.419 48.9562C139.284 53.2884 135.827 57.4404 132.205 61.4539C132.426 61.5226 132.621 61.6658 132.732 61.8889C134.185 61.1585 135.699 60.1138 137.043 59.8305C138.983 59.4223 142.961 59.1733 144.426 60.892C146.228 63.0053 144.294 64.7235 142.164 65.1301C139.074 65.7197 135.032 64.2271 132.06 63.2187C131.72 63.2785 131.349 63.1801 131.127 62.9109C131.062 62.8897 130.996 62.8687 130.932 62.8484C127.264 66.8423 123.455 70.7044 119.67 74.482C119.711 74.4799 119.751 74.4774 119.793 74.4752C120.78 73.8337 121.839 73.3072 122.986 73.0311C125.641 72.3891 128.764 72.3844 130.917 74.2853C133.062 76.1781 133.82 79.4899 131.599 81.6176C127.154 85.8767 120.613 76.1741 118.372 75.7701C114.525 79.5687 110.458 83.118 106.327 86.5957C106.796 86.4541 107.277 86.3499 107.774 86.3029C111.823 85.917 121.325 90.8283 116.353 95.6677C112.021 99.8849 107.013 91.7748 103.525 88.9394C99.6318 92.1808 95.7179 95.4 91.9139 98.7446C93.988 98.1983 95.9922 98.1169 98.215 98.7811C100.515 99.4693 104.226 101.188 102.77 104.264C101.29 107.393 96.833 105.972 94.5119 104.98C93.2459 104.439 90.708 102.612 88.4794 101.843C82.4089 107.52 77.1501 113.771 73.1676 121.134C70.6813 125.731 68.7938 130.642 67.4644 135.69C66.6159 138.911 64.9445 144.322 65.2764 148.515C63.6884 140.123 66.5726 130.043 69.6779 122.54C72.5331 115.641 76.804 109.584 81.8056 104.131C80.5531 100.395 69.9972 95.0106 76.3111 91.5358C79.6639 89.6986 83.0955 92.7426 83.8265 95.968C84.3286 98.1844 83.5605 100.97 82.7456 103.122C84.319 101.46 85.9546 99.8506 87.6399 98.2951C89.969 96.1452 92.3538 94.0576 94.7614 91.9963C90.7977 88.3087 87.0499 77.7628 92.368 76.035C100.221 73.491 96.4331 87.8805 95.8839 90.5773C95.7284 90.5865 95.6072 90.54 95.5181 90.4403C95.5621 90.6872 95.6132 90.9513 95.6752 91.2175C100.283 87.2929 104.96 83.4453 109.482 79.4269C109.075 79.129 108.428 77.9902 107.919 77.3841C106.772 76.0179 105.674 74.5907 104.872 72.9922C103.604 70.466 102.383 66.4363 105.746 64.9483C109.404 63.3271 111.139 67.8847 111.163 70.604C111.18 72.4848 110.662 74.2716 110.391 76.1152C110.307 76.6902 110.63 79.2816 109.84 78.1672C109.877 78.5782 109.882 78.8759 109.863 79.087C110.675 78.3619 111.481 77.629 112.281 76.8909C112.244 76.7977 112.217 76.6962 112.211 76.5784C112.168 75.7677 112.992 75.455 113.57 75.6922C114.626 74.6979 115.672 73.6912 116.7 72.6644C118.877 70.4892 121.086 68.2518 123.28 65.9669C122.805 65.5624 122.994 65.0018 122.55 64.5723C122.106 64.1438 121.231 63.9071 120.709 63.5091C119.396 62.5076 118.307 61.048 117.52 59.6113C116.22 57.2376 114.542 52.2575 118.342 51.1239C122.26 49.9536 124.245 54.7473 124.495 57.7449C124.544 58.3256 124.102 63.5585 123.765 65.4588C127.825 61.2124 131.818 56.8067 135.436 52.3246C134.339 52.3151 131.233 50.0924 130.605 49.4857C129.072 48.0061 126.637 44.7362 129.326 43.0038C131.716 41.4672 134.661 43.6895 135.681 45.8503C135.849 46.206 136.44 49.5181 136.485 51.0042C137.983 49.1035 139.411 47.1917 140.74 45.2738C141.626 43.9987 142.455 42.6899 143.23 41.3533C143.043 41.2488 142.868 41.0664 142.703 40.8396C138.717 40.1717 133.639 34.0155 138.322 31.8703C140.551 30.8503 142.967 32.9523 144.058 34.6737C144.282 35.0259 144.643 36.7969 144.937 38.1938C147.167 33.7662 148.872 29.0791 150.171 24.2737C149.824 24.1885 149.53 23.9262 149.491 23.4747C147.557 22.3831 146.029 21.4742 144.68 19.3739C143.841 18.0694 142.331 15.0888 144.797 14.3632C148.007 13.4192 150.02 18.2722 150.281 20.6629C150.312 20.9404 150.31 21.7476 150.299 22.4873C150.411 22.4722 150.523 22.4738 150.634 22.4931C151.372 19.5175 151.962 16.5037 152.431 13.4849C150.68 12.9276 150.382 3.81813 151.549 2.52043C154.157 -0.385248 155.994 3.8093 155.854 6.02677C155.688 8.64139 154.49 11.0203 153.065 13.1318C152.912 13.3554 152.955 13.3445 152.916 13.0332C152.894 13.1871 152.842 13.3007 152.765 13.383C152.838 14.7592 152.98 16.1682 152.911 17.3861C152.712 20.8737 152.3 24.3818 151.702 27.8247C151.557 28.6621 151.391 29.4926 151.204 30.316C152.613 29.1275 154.511 28.0713 155.254 27.7409C157.182 26.8843 160.153 25.9589 162.067 27.4075ZM64.961 148.184C65.0541 149.304 65.3304 150.327 65.8746 151.165C65.4751 150.207 65.1756 149.21 64.961 148.184Z" fill="#C1DEE2"/>
<g opacity="0.5">
<path opacity="0.5" fill-rule="evenodd" clip-rule="evenodd" d="M134.785 124.297C137.963 119.765 143.861 108.257 148.334 106.637C151.215 105.594 150.375 116.383 150.411 118.44C150.549 126.399 149.775 134.307 148.818 142.199C147.094 156.432 141.457 169.108 133.726 181.222C129.747 187.455 125.081 193.764 118.618 197.654C115.643 199.445 112.064 199.745 109.126 201.288C105.704 203.084 107.567 201.632 106.025 205.198C103.884 210.148 103.199 216.534 102.208 221.816C97.6588 246.064 86.6451 374.245 88.5544 398.91C88.724 401.096 85.6757 401.619 85.5235 398.95C84.7147 384.799 91.7137 286.803 95.2448 254.755C98.776 222.708 102.349 194.396 105.932 183.308C110.279 169.857 118.129 153.681 124.664 141.137C127.7 135.309 131.008 129.682 134.785 124.297Z" fill="#69A1AC"/>
<path opacity="0.5" fill-rule="evenodd" clip-rule="evenodd" d="M158.374 281.476C166.644 275.404 175.595 286.863 168.112 292.935C163.975 296.291 159.65 295.097 157.215 292.3C155.635 294.227 154.155 296.242 152.734 297.943C148.403 303.128 144.309 308.437 140.397 313.869C132.27 325.155 125.306 337.079 118.024 348.784C110.838 360.337 103.709 371.949 97.1953 383.794C91.6774 393.83 84.3228 405.636 82.4336 416.638C85.3 393.304 96.1765 370.877 109.129 350.306C121.975 329.904 136.718 307.624 156.61 291.523C154.585 288.546 154.529 284.297 158.374 281.476Z" fill="#C1DEE2"/>
<path opacity="0.5" fill-rule="evenodd" clip-rule="evenodd" d="M1.4469 224.568C6.07471 225.473 13.6365 235.942 17.4512 239.931C21.9847 244.671 26.0977 249.723 29.9748 255.016C38.3212 266.41 45.7855 278.524 52.1328 291.157C62.4805 311.751 70.7704 332.892 76.7867 355.318C80.4695 369.045 82.854 383.274 84.2671 397.402C84.534 400.067 87.3277 420.611 83.3022 421.164C79.6817 421.663 80.7999 405.565 80.6252 403.375C78.6509 378.672 72.7362 354.635 64.5089 331.35C62.7169 326.278 61.052 320.065 58.1862 315.501C56.1224 312.213 58.1714 313.359 54.5445 312.115C51.4302 311.046 47.882 311.307 44.6929 309.999C37.7649 307.158 32.2176 301.642 27.355 296.094C17.9053 285.312 10.4169 273.648 6.5135 259.833C4.34816 252.173 2.35833 244.468 1.25409 236.571C0.968448 234.53 -1.53384 223.985 1.4469 224.568Z" fill="#69A1AC"/>
<path opacity="0.5" fill-rule="evenodd" clip-rule="evenodd" d="M19.7094 50.3877C37.1414 80.6192 51.4664 113.828 60.7161 147.463C66.3203 167.842 70.2395 188.754 74.1335 209.515C80.1627 241.661 85.8657 273.804 87.4879 306.521C89.1199 339.428 92.3472 377.381 81.5721 409.076C86.9543 376.897 81.8301 342.646 80.9228 310.268C80.4892 294.812 79.2328 279.506 77.5846 264.14C75.9852 249.234 73.3722 234.399 70.939 219.61C69.7537 212.407 68.5089 205.215 67.2415 198.028C66.8631 195.883 66.7033 189.52 65.3429 188.055C63.9738 186.58 56.9883 185.979 54.7952 184.897C50.379 182.718 46.2249 179.622 42.5485 176.351C35.5007 170.081 29.3695 161.889 24.5303 153.813C13.3335 135.126 8.85707 112.322 9.08333 90.6805C9.1268 86.4787 15.8842 41.2322 13.1703 40.6091C13.3337 40.4178 13.4883 40.2202 13.634 40.0146C15.6887 43.4548 17.7049 46.9182 19.7094 50.3877Z" fill="#89C5CC"/>
<path opacity="0.5" fill-rule="evenodd" clip-rule="evenodd" d="M207.859 159.42C208.128 159.032 209.879 156.334 208.997 156.507C210.792 156.156 206.528 159.482 211 157.441C208.877 159.446 210.103 162.052 210.131 164.751C210.177 169.133 209.444 173.479 208.619 177.767C207.314 184.545 205.372 191.135 202.552 197.44C196.406 211.178 185.969 224.404 173.579 232.994C167.462 237.235 161.468 238.679 154.492 240.631C150.085 241.864 149.736 244.144 147.397 248.42C142.527 257.325 137.745 266.199 133.45 275.405C128.322 286.399 123.345 297.404 118.649 308.591C102.83 346.273 89.9555 385.312 83.1941 425.713C83.0285 401.905 88.5362 377.384 95.4837 354.691C100.545 338.157 107.133 322.218 114.16 306.441C115.863 302.619 118.443 297.703 119.166 293.483C119.672 290.526 118.124 287.683 117.416 284.568C114.652 272.44 114.85 258.852 117.277 246.658C119.952 233.212 127.689 226.972 140.777 225.067C145.563 224.371 151.647 224.626 156.036 222.585C160.818 220.363 162.791 213.057 165.51 208.368C172.813 195.771 181.491 183.69 191.455 173.077C194.214 170.138 197.181 167.426 200.328 164.913C202.313 163.327 206.506 161.374 207.859 159.42Z" fill="#89C5CC"/>
<path opacity="0.5" fill-rule="evenodd" clip-rule="evenodd" d="M61.1002 400H107.548C109.637 400 111.33 401.693 111.33 403.781C111.33 403.966 111.316 404.15 111.289 404.333L107.699 428.676C106.605 436.097 100.237 441.595 92.7356 441.595H75.9129C68.4117 441.595 62.0437 436.097 60.9493 428.676L57.3593 404.333C57.0546 402.267 58.4825 400.345 60.5485 400.04C60.7312 400.014 60.9156 400 61.1002 400Z" fill="#C1DEE2"/>
</g>
</svg>
