<svg width="740" height="680" viewBox="0 0 740 680" fill="none" xmlns="http://www.w3.org/2000/svg">
<path fill-rule="evenodd" clip-rule="evenodd" d="M53.8113 519.875C70.1176 435.901 235.118 483.74 343.29 457.779C451.462 431.819 579.439 310.915 664.137 370.14C748.834 429.364 658.717 572.527 464.458 604.834C270.198 637.141 37.505 603.848 53.8113 519.875Z" fill="#F2F2F2"/>
<g opacity="0.5">
<path fill-rule="evenodd" clip-rule="evenodd" d="M96.9081 127.673C95.3351 129.243 95.9461 134.825 95.9131 136.89C95.8625 140.106 96.0626 143.293 96.3314 146.497C96.5116 148.642 97.5269 169.114 100.353 167.542C101.946 166.656 100.947 160.734 100.944 158.861C100.938 154.696 100.764 150.542 100.487 146.387C100.229 142.529 100.067 138.717 100.215 134.852C100.251 133.908 101.134 123.439 96.9081 127.673Z" fill="#89C5CC"/>
<path fill-rule="evenodd" clip-rule="evenodd" d="M165.409 125.149C151.896 125.256 138.388 125.923 124.881 126.331C118.381 126.528 111.886 126.778 105.394 127.138C103.181 127.261 98.4362 126.553 96.593 127.731C92.5013 130.349 99.1001 130.96 100.859 130.896C127.59 129.927 154.329 128.651 181.082 128.59C194.206 128.561 207.323 128.935 220.448 128.851C225.465 128.819 231.02 126.657 232.287 132.497C233.717 139.087 232.074 146.424 231.627 153.045C231.329 157.466 231.435 161.794 231.634 166.211C231.762 169.04 231.429 172.229 231.93 175.005C232.411 177.679 234.333 179.282 236.095 176.287C237.148 174.498 236.624 170.079 236.694 168.005C236.788 165.213 236.7 162.421 236.7 159.629C236.699 152.812 237.661 146.022 237.534 139.206C237.452 134.811 237.219 126.844 231.676 125.788C225.572 124.625 218.069 125.795 211.822 125.723C196.344 125.547 180.892 125.028 165.409 125.149Z" fill="#89C5CC"/>
<path fill-rule="evenodd" clip-rule="evenodd" d="M128.174 167.786C123.078 167.786 117.982 167.817 112.887 167.901C108.517 167.973 101.647 167.062 97.5797 168.626C94.7954 169.696 94.0558 172.805 97.5797 173.633C101.423 174.536 107.216 173.059 111.237 172.988C131.401 172.632 151.759 172.168 171.894 173.444C190.762 174.638 209.993 175.796 228.889 174.536C230.478 174.429 238.587 174.107 234.887 171.067C232.728 169.293 223.98 170.46 221.174 170.375C211.28 170.077 201.376 170.011 191.485 169.636C181.723 169.265 172.004 168.167 162.238 167.896C150.893 167.58 139.523 167.786 128.174 167.786Z" fill="#89C5CC"/>
<path fill-rule="evenodd" clip-rule="evenodd" d="M123.075 138.804C131.017 139.151 138.875 150.669 130.839 156.236C123.3 161.459 109.172 155.735 113.364 145.606C112.761 147.071 114.126 144.015 114.143 143.995C114.94 143.056 116.371 142.016 117.354 141.276C118.478 140.428 119.649 139.496 121.005 139.071C121.895 138.793 121.755 139.841 123.075 138.804ZM119.207 134.65C115.49 136.101 113.794 137.738 111.239 140.701C109.472 142.751 107.218 143.83 107.238 146.6C107.243 147.214 108.03 147.888 108.167 148.478C108.355 149.295 108.137 150.34 108.286 151.208C109.824 160.157 120.501 163.174 128.317 161.484C135.125 160.013 140.217 153.477 138.64 146.371C137.052 139.217 126.444 131.82 119.207 134.65Z" fill="#89C5CC"/>
<path fill-rule="evenodd" clip-rule="evenodd" d="M115.896 147.143C115.896 150.362 120.982 150.362 120.982 147.143C120.982 143.96 115.896 143.823 115.896 147.143Z" fill="#89C5CC"/>
<path fill-rule="evenodd" clip-rule="evenodd" d="M122.259 146.491C122.259 149.05 126.299 149.05 126.299 146.491C126.299 143.962 122.259 143.854 122.259 146.491Z" fill="#89C5CC"/>
<path fill-rule="evenodd" clip-rule="evenodd" d="M123.51 151.767C122.216 152.265 120.575 151.233 119.513 151.913C117.632 153.117 119.517 154.207 120.526 154.691C125.066 156.87 125.874 150.862 123.51 151.767Z" fill="#89C5CC"/>
<path fill-rule="evenodd" clip-rule="evenodd" d="M192.85 144.632C192.715 144.69 192.233 144.894 192.85 144.632V144.632ZM173.078 141.743C169.68 142.51 166.811 145.683 163.119 145.259C160.289 144.933 158.374 142.203 155.58 141.806C152.007 141.298 142.283 149.449 147.396 150.848C150.379 151.664 152.033 146.213 154.669 145.923C156.753 145.694 159.588 148.25 161.748 148.614C165.778 149.293 168.546 147.074 172.084 145.642C175.928 144.086 178.115 145.487 181.459 147.216C184.098 148.581 186.583 149.47 189.603 148.906C192.437 148.378 195.997 145.464 198.85 145.763C201.644 146.056 203.638 148.972 206.512 149.242C207.696 149.354 209.46 149.757 209.261 147.929C209.102 146.465 207.469 146.713 206.447 146.181C203.819 144.813 201.361 142.389 198.189 142.596C195.804 142.751 193.632 144.428 191.433 145.23C184.233 147.855 180.186 140.149 173.078 141.743Z" fill="#89C5CC"/>
<path fill-rule="evenodd" clip-rule="evenodd" d="M179.093 188.111C165.204 188.239 151.268 188.445 137.419 189.558C134.135 189.822 100.608 192.988 100.672 193.216C100.789 193.637 105.102 194.282 105.075 194.381C104.784 193.661 104.12 193.362 103.082 193.487C134.88 193.487 166.576 190.64 198.416 191.152C206.416 191.28 214.446 191.227 222.441 191.479C224.437 191.542 229.382 192.972 230.949 192.071C235.063 189.706 227.59 189.433 226.352 189.334C210.683 188.08 194.805 187.954 179.093 188.111Z" fill="#69A1AC"/>
<path fill-rule="evenodd" clip-rule="evenodd" d="M96.5557 194.86C94.4794 196.941 96.3913 204.43 96.4731 207.245C96.5914 211.314 96.4939 215.413 96.851 219.471C97.2586 224.108 97.891 229.047 99.1074 233.545C99.7774 236.023 102.129 239.962 103.061 235.459C103.726 232.243 102.716 227.976 102.364 224.7C101.894 220.317 101.78 215.992 101.763 211.588C101.747 207.75 101.673 203.897 101.358 200.071C101.195 198.085 100.196 191.239 96.5557 194.86Z" fill="#69A1AC"/>
<path fill-rule="evenodd" clip-rule="evenodd" d="M148.794 232.998C138.938 233.168 129.061 233.4 119.222 234.015C115.189 234.268 111.16 234.644 107.142 235.07C106.322 235.157 97.2469 235.526 101.302 238.875C103.132 240.387 110.661 238.296 113.148 238.078C117.33 237.712 121.511 237.473 125.706 237.296C135.424 236.883 145.172 236.519 154.9 236.688C172.667 236.996 190.319 237.134 208.09 236.737C210.615 236.681 230.396 237.21 231.068 234.583C231.609 232.466 224.535 233.437 223.246 233.475C218.514 233.617 213.782 233.584 209.049 233.56C188.998 233.457 168.83 232.66 148.794 232.998Z" fill="#69A1AC"/>
<path fill-rule="evenodd" clip-rule="evenodd" d="M227.719 191.347C228.032 200.122 229.527 208.887 230.005 217.689C230.223 221.712 230.48 225.732 230.677 229.757C230.74 231.056 230.217 234.184 231.753 234.931C233.859 235.955 234.142 233.891 234.536 232.495C235.675 228.462 234.905 223.224 234.802 219.081C234.702 215.07 234.695 211.051 234.399 207.047C234.096 202.957 233.272 198.943 232.89 194.867C232.728 193.143 233.294 190.274 231.463 189.204C229.881 188.279 227.651 189.445 227.719 191.347Z" fill="#69A1AC"/>
<path fill-rule="evenodd" clip-rule="evenodd" d="M130.845 205.945C130.883 205.973 130.92 206.003 130.957 206.032C130.92 206.003 130.882 205.974 130.845 205.945ZM122.469 203.345C125.593 204.237 128.158 203.904 131.141 206.178C133.614 208.063 136.151 210.821 136.972 213.869C138.867 220.912 132.442 224.771 126.418 224.847C120.248 224.925 111.116 223.494 111.432 215.585C111.674 209.509 116.111 203.581 122.469 203.345ZM122.689 199.365C114.59 199.768 108.057 208.863 108.128 216.519C108.212 225.798 118.726 228.188 126.194 228.253C134.623 228.325 143.029 222.505 140.77 213.026C138.96 205.431 130.478 198.96 122.689 199.365Z" fill="#69A1AC"/>
<path fill-rule="evenodd" clip-rule="evenodd" d="M114.542 211.823C114.542 214.411 118.63 214.411 118.63 211.823C118.63 209.265 114.542 209.155 114.542 211.823Z" fill="#69A1AC"/>
<path fill-rule="evenodd" clip-rule="evenodd" d="M123.117 210.687C123.117 213.295 127.238 213.295 127.238 210.687C127.238 208.109 123.117 207.998 123.117 210.687Z" fill="#69A1AC"/>
<path fill-rule="evenodd" clip-rule="evenodd" d="M118.39 216.589C115.73 219.245 125.077 223.903 127.282 220.207C129.092 217.172 125.15 218.178 123.752 218.014C122.234 217.835 119.63 215.353 118.39 216.589Z" fill="#69A1AC"/>
<path fill-rule="evenodd" clip-rule="evenodd" d="M193.125 210.741C192.869 210.849 192.869 210.849 193.125 210.741V210.741ZM158.023 206.416C155.329 206.921 146.487 209.904 146.367 213.101C146.149 218.911 154.809 212.96 156.689 212.196C161.797 210.12 164.481 214.354 169.612 214.578C174.069 214.772 178.167 210.958 182.365 211.409C186.763 211.881 188.879 216.561 193.957 214.076C196.643 212.762 196.576 210.736 193.56 210.545C191.737 210.429 190.485 211.183 188.585 210.398C185.613 209.173 184.416 207.177 180.86 207.494C178.176 207.733 175.751 209.246 173.131 209.831C167.133 211.171 163.806 205.333 158.023 206.416Z" fill="#69A1AC"/>
<path fill-rule="evenodd" clip-rule="evenodd" d="M213.818 213.263C213.633 213.341 213.633 213.341 213.818 213.263V213.263ZM214.498 210.844C214.528 210.857 214.731 211.139 214.498 210.844V210.844ZM211.409 208.997C211.293 209.087 211.293 209.087 211.409 208.997V208.997ZM211.477 208.974C212.076 209.333 216.891 212.625 213.393 213.401C211.618 213.794 210.149 210.222 211.477 208.974ZM209.882 205.327C202.169 208.844 210.469 221.429 216.523 216.316C219.07 214.164 219.405 209.815 216.927 207.573C215.442 206.23 211.898 204.406 209.882 205.327Z" fill="#69A1AC"/>
<path fill-rule="evenodd" clip-rule="evenodd" d="M137.477 254.921C127.852 254.924 118.143 254.722 108.531 255.292C106.914 255.388 100.752 255.081 99.9182 256.772C98.3935 259.864 104.734 258.329 105.655 258.236C124.793 256.321 144.784 257.423 163.985 257.969C179.689 258.415 195.308 258.693 210.993 259.502C215.116 259.715 219.235 259.95 223.355 260.198C224.698 260.279 228.077 261.169 228.361 259.024C228.622 257.04 224.407 257.488 223.354 257.432C214.979 256.991 206.61 256.53 198.237 256.058C178.085 254.922 157.661 254.917 137.477 254.921Z" fill="#89C5CC"/>
<path fill-rule="evenodd" clip-rule="evenodd" d="M99.6095 258.36C97.8118 260.147 98.6545 266.971 98.6043 269.227C98.5166 273.171 98.3304 277.113 98.2468 281.057C98.16 285.178 98.2807 289.319 98.5245 293.435C98.6266 295.163 100.045 303.515 102.278 298.736C103.276 296.6 102.254 290.651 102.269 288.23C102.297 283.826 102.534 279.44 102.753 275.041C102.942 271.26 102.949 267.475 103.114 263.693C103.166 262.488 103.309 254.65 99.6095 258.36Z" fill="#89C5CC"/>
<path fill-rule="evenodd" clip-rule="evenodd" d="M229.98 293.596C220.613 294.556 211.096 294.102 201.694 294.811C193.591 295.422 185.495 295.672 177.371 295.844C158.975 296.233 140.547 296.611 122.204 298.144C118.024 298.493 113.848 298.864 109.657 299.051C107.561 299.145 98.7643 298.191 98.1092 300.401C96.9935 304.164 106.4 302.675 108.429 302.616C112.891 302.487 117.332 302.165 121.781 301.826C140.485 300.401 159.259 299.975 178.003 299.382C188.196 299.061 198.319 298.315 208.49 297.636C213.56 297.298 218.643 297.287 223.712 296.959C225.039 296.874 229.734 297.043 230.688 295.975C231.343 295.242 231.509 293.453 229.98 293.596Z" fill="#89C5CC"/>
<path fill-rule="evenodd" clip-rule="evenodd" d="M226.805 259.001C227.126 267.983 227.634 276.958 227.937 285.94C228.029 288.641 227.212 293.483 228.717 295.865C231.135 299.695 233.023 295.641 233.466 293.254C234.864 285.721 233.361 277.4 232.97 269.821C232.822 266.929 233.72 260.493 232.322 257.905C230.991 255.44 226.686 255.688 226.805 259.001Z" fill="#89C5CC"/>
<path fill-rule="evenodd" clip-rule="evenodd" d="M211.08 271.793C214.669 272.765 215.193 280.567 211.144 281.144C205.117 282.003 207.753 273.402 211.08 271.793ZM210.075 268.691C208.98 268.657 206.453 268.355 205.779 269.246C205.214 269.992 205.785 271.564 205.719 272.275C205.482 274.813 203.418 276.279 204.34 279.275C204.967 281.309 206.644 283.221 208.688 283.927C219.473 287.655 219.342 266.816 210.075 268.691Z" fill="#89C5CC"/>
<path fill-rule="evenodd" clip-rule="evenodd" d="M112.702 270.091C112.675 270.126 112.648 270.16 112.621 270.194C112.648 270.16 112.675 270.126 112.702 270.091ZM121.173 265.584C121.13 265.224 121.088 264.863 121.046 264.502C126.893 267.262 131.547 272.397 129.605 279.289C128.123 284.546 122.771 286.411 117.784 285.113C112.263 283.676 109.625 279.126 111.114 273.538C111.8 270.961 113.909 267.496 116.635 266.668C117.904 266.282 120.71 267.265 121.173 265.584ZM117.753 263.402C116.274 263.501 114.834 264.118 113.627 264.96C114.757 264.005 116.263 263.435 117.753 263.402ZM117.795 260.006C114.141 260.117 111.747 262.329 109.58 264.986C108.9 265.82 106.6 268.03 106.885 269.154C107.11 270.042 107.699 271.341 108.94 270.351C102.442 283.301 119.228 294.346 129.475 285.341C139.038 276.937 129.55 259.612 117.795 260.006Z" fill="#89C5CC"/>
<path fill-rule="evenodd" clip-rule="evenodd" d="M114.476 272.034C114.476 273.759 117.153 273.759 117.153 272.034C117.153 270.31 114.476 270.31 114.476 272.034Z" fill="#89C5CC"/>
<path fill-rule="evenodd" clip-rule="evenodd" d="M119.044 272.329C119.044 274.082 121.764 274.082 121.764 272.329C121.764 270.576 119.044 270.576 119.044 272.329Z" fill="#89C5CC"/>
<path fill-rule="evenodd" clip-rule="evenodd" d="M121.118 278.484C119.845 278.588 115.187 278.155 114.369 279.27C113.003 281.132 115.184 281.197 116.255 281.399C117.22 281.58 121.413 281.477 122.004 280.621C122.527 279.864 122.405 278.375 121.118 278.484Z" fill="#89C5CC"/>
<path fill-rule="evenodd" clip-rule="evenodd" d="M177.241 273.654C177.022 273.744 177.022 273.744 177.241 273.654V273.654ZM159.64 272.367C156.772 272.577 154.344 274.227 151.602 274.885C148.676 275.588 147.409 274.295 144.748 273.449C141.98 272.57 140.011 272.917 137.786 274.808C136.526 275.879 133.76 278.344 134.548 280.247C136.352 284.603 140.436 277.516 142.357 277.187C145.353 276.673 148.019 279.293 151.475 278.543C154.606 277.865 157.384 275.715 160.654 275.691C163.389 275.672 165.966 277.168 168.666 277.53C172.788 278.083 175.494 276.62 179.304 275.533C182.608 274.592 184.924 275.834 188.032 276.879C189.452 277.356 194.191 279.092 193.319 275.944C193.072 275.055 186.827 273.465 185.859 273.159C182.445 272.081 180.283 272.501 177.03 273.741C174.318 274.776 172.036 275.279 169.128 274.71C165.924 274.083 163.01 272.111 159.64 272.367Z" fill="#89C5CC"/>
</g>
<g opacity="0.5">
<path fill-rule="evenodd" clip-rule="evenodd" d="M291.575 128.012C292.038 118.056 292.674 108.113 293.009 98.1506C293.176 93.2138 293.306 88.2766 293.432 83.339C293.459 82.2395 293.488 81.1405 293.513 80.041C293.594 76.3058 293.151 76.0002 296.91 75.6686C313.679 74.1885 330.515 73.6979 347.304 72.3586C367.553 70.7435 387.907 69.6283 408.213 69.1284C417.236 68.9058 426.298 68.4449 435.323 68.7254C437.322 68.7876 441.247 68.2673 442.035 69.8216C442.375 70.4931 441.661 72.8038 441.571 73.5787C441.288 75.9993 441.024 78.4282 440.861 80.8609C439.901 95.2083 440.473 109.917 443.251 124.047C436.734 120.372 428.5 117.211 420.904 117.839C413.16 118.478 407.367 122.952 401.168 127.071C397.662 129.4 396.481 130.013 392.983 127.756C389.968 125.811 387.116 123.588 384.272 121.405C379.883 118.038 375.741 114.386 371.485 110.855C363.66 104.363 352.878 95.1225 342.07 97.8431C334.348 99.787 327.218 104.031 320.516 108.184C310.558 114.355 301.545 121.912 291.575 128.012ZM425.779 64.3039C387.306 64.3039 349.121 68.0335 310.756 70.0512C306.749 70.2617 302.756 70.5719 298.764 70.9573C296.103 71.2142 289.596 70.1356 287.852 72.4092C286.688 73.926 287.688 74.1537 287.852 75.5949C288.058 77.4113 287.936 79.5634 287.883 81.486C287.755 86.1185 287.62 90.7506 287.515 95.3836C287.118 112.894 286.869 130.4 287.578 147.906C287.733 151.723 289.124 157.009 288.363 160.719C287.812 163.405 285.97 165.039 290.218 165.536C294.398 166.024 299.509 164.782 303.693 164.384C307.901 163.983 312.108 163.549 316.321 163.201C334.638 161.692 353.133 161.92 371.499 161.418C390.029 160.912 408.567 160.88 427.104 160.87C434.86 160.865 443.723 161.301 451.291 159.167C453.953 158.416 454.384 158.046 453.727 155.404C453.603 154.903 452.799 154.718 452.563 153.811C452.242 152.578 452.407 151.08 452.332 149.796C452.087 145.604 452.001 141.405 451.804 137.21C451.474 130.201 450.266 123.399 449.372 116.461C448.341 108.449 448.394 100.313 448.373 92.2484C448.361 87.7749 448.476 83.3163 448.835 78.8553C449.066 75.9942 450.475 71.7224 449.76 69.0542C449.404 67.7256 448.822 66.6721 447.439 66.1003C446.563 65.7377 445.826 66.0215 444.96 65.9297C443.933 65.8207 443.292 65.6765 442.062 65.3978C436.789 64.2028 431.151 64.3039 425.779 64.3039Z" fill="#69A1AC"/>
<path fill-rule="evenodd" clip-rule="evenodd" d="M404.487 83.3523C404.484 86.1406 404.049 90.2552 405.335 92.8807C406.965 96.2111 409.005 95.1701 409.545 92.0405C409.855 90.2473 409.847 84.9405 409.271 83.3523C408.456 81.1042 404.487 79.573 404.487 83.3523Z" fill="#89C5CC"/>
<path fill-rule="evenodd" clip-rule="evenodd" d="M409.165 84.4292C406.548 84.5215 398.924 83.8932 397.153 85.998C394.115 89.608 399.404 90.2475 401.674 90.0453C404.302 89.8116 412.423 90.382 414.183 88.2748C417.127 84.7496 411.224 84.3541 409.165 84.4292Z" fill="#89C5CC"/>
<path fill-rule="evenodd" clip-rule="evenodd" d="M307.583 177.579C319.091 179.578 315.511 197.124 304.621 193.06C300.827 191.644 295.236 187.552 297.334 182.731C298.9 179.129 304.006 177.236 307.583 177.579ZM302.818 172.124C295.334 173.383 290.217 181.483 292.783 188.547C295.259 195.363 304.648 200.354 311.573 197.905C318.183 195.566 321.481 186.771 319.252 180.337C316.924 173.614 309.338 171.026 302.818 172.124Z" fill="#89C5CC"/>
<path fill-rule="evenodd" clip-rule="evenodd" d="M372.816 179.632C369.951 179.87 367.475 181.876 364.592 182.231C361.896 182.563 359.662 181.641 357.138 180.903C354.087 180.013 351.289 179.621 348.171 180.412C345.789 181.017 343.439 182.639 340.964 182.834C336.094 183.219 330.434 177.663 326.632 183.947C324.809 186.96 327.456 188.9 330.182 187.495C333.024 186.031 331.629 185.506 335.155 186.372C338.096 187.093 340.474 187.484 343.42 186.474C346.089 185.558 348.432 183.883 351.333 183.695C354.174 183.51 356.645 184.804 359.36 185.363C362.699 186.049 365.653 185.529 368.817 184.483C371.826 183.487 373.027 182.943 376.064 183.831C377.986 184.393 382.187 186.18 384.058 184.74C387.294 182.251 382.962 181.887 381.256 181.533C378.509 180.964 375.667 179.399 372.816 179.632Z" fill="#89C5CC"/>
<path fill-rule="evenodd" clip-rule="evenodd" d="M438.384 177.96C438.407 177.977 438.43 177.995 438.452 178.013C438.43 177.995 438.406 177.977 438.384 177.96ZM435.571 177.371C439.754 177.641 444.277 185.26 438.735 185.531C434.834 185.721 430.469 179.049 435.571 177.371ZM434.984 171.136C421.758 174.83 427.804 193.477 440.562 191.323C446.357 190.345 448.321 183.631 446.405 178.661C445.582 176.527 443.978 174.727 442.061 173.499C440.647 172.593 436.601 170.686 434.984 171.136Z" fill="#89C5CC"/>
<path fill-rule="evenodd" clip-rule="evenodd" d="M373.276 210.065C384.915 209.666 396.555 209.266 408.206 209.158C414.52 209.1 420.8 209.21 427.105 209.572C429.901 209.732 432.696 209.887 435.494 210.006C435.977 210.026 436.644 209.993 437.38 209.957C439.112 209.872 441.227 209.768 442.222 210.294C447.788 213.239 436.448 213.561 435.07 213.538C431.983 213.486 428.899 213.334 425.815 213.181C423.12 213.048 420.425 212.915 417.727 212.849C400.42 212.423 383.007 213.201 365.671 213.975C361.697 214.153 357.727 214.33 353.763 214.492C349.554 214.665 345.347 214.777 341.139 214.889C335.125 215.048 329.111 215.208 323.097 215.546C320.8 215.675 318.504 215.812 316.208 215.948C312.919 216.144 309.63 216.34 306.339 216.513C303.763 216.649 301.186 216.781 298.606 216.846C298.142 216.858 297.537 216.922 296.876 216.993L296.876 216.993H296.876C295.277 217.163 293.353 217.369 292.313 216.944C291.063 216.432 290.051 215.717 290.739 214.202C291.32 212.921 293.433 213.074 294.974 213.186C295.395 213.217 295.773 213.244 296.065 213.239C300.989 213.143 305.902 212.867 310.817 212.566C312.615 212.456 314.412 212.343 316.209 212.23L316.21 212.23L316.21 212.23L316.21 212.23L316.21 212.23C325.567 211.641 334.915 211.053 344.295 210.893C353.959 210.728 363.617 210.397 373.276 210.065ZM434.065 286.669L437.411 286.628C439.139 286.779 439.912 288.592 438.802 289.986C437.953 291.054 434.684 291.102 432.553 291.134C431.962 291.142 431.459 291.15 431.119 291.177C425.556 291.624 420.004 291.826 414.424 291.879C402.674 291.991 390.968 292.494 379.237 293.163C367.229 293.848 355.211 294.105 343.192 294.363H343.191C334.349 294.552 325.506 294.742 316.667 295.101C311.605 295.307 306.542 295.461 301.478 295.594C300.934 295.608 300.21 295.686 299.391 295.775C296.192 296.12 291.544 296.622 290.491 294.082C289.556 291.827 290.855 290.789 292.755 290.317C292.455 288.982 292.511 287.106 292.542 286.031C292.552 285.708 292.559 285.457 292.554 285.316C292.507 283.968 292.473 282.62 292.44 281.272C292.402 279.745 292.365 278.218 292.306 276.692C292.252 275.306 292.203 273.919 292.153 272.532C291.957 267.059 291.761 261.574 291.339 256.123C291.145 253.607 290.837 251.121 290.529 248.639C290.038 244.676 289.547 240.724 289.525 236.678C289.521 235.95 289.484 235.04 289.443 234.014C289.233 228.761 288.901 220.457 292.161 217.928C297.91 214.574 296.773 224.257 296.266 228.578C296.183 229.291 296.116 229.859 296.1 230.197C295.77 237.383 296.218 244.252 296.941 251.392C297.43 256.214 297.144 261.02 296.859 265.834C296.757 267.553 296.655 269.274 296.588 270.996C296.555 271.848 296.525 272.7 296.496 273.552C296.405 276.173 296.315 278.791 296.118 281.409C296.096 281.692 296.089 282.235 296.08 282.929C296.054 284.887 296.013 288.044 295.594 289.961C296.486 289.923 297.351 289.932 298.067 289.94C298.522 289.945 298.917 289.949 299.219 289.94C300.591 289.899 301.964 289.858 303.336 289.818C307.39 289.699 311.444 289.581 315.497 289.428C325.065 289.068 334.636 288.948 344.207 288.828C355.511 288.686 366.816 288.544 378.115 288.007C396.737 287.122 415.423 286.895 434.065 286.669ZM437.519 216.42C437.509 228.729 438.461 240.701 439.573 252.96C440.261 260.543 440.812 268.155 441.251 275.758C441.271 276.11 441.268 276.697 441.264 277.432V277.433C441.242 281.637 441.194 290.695 445.349 288.528C448.486 286.892 447.28 277.405 446.613 272.156L446.613 272.155C446.467 271.004 446.346 270.056 446.303 269.44C446.212 268.127 446.122 266.815 446.032 265.502C445.614 259.408 445.197 253.318 444.647 247.231L444.531 245.948C443.895 238.917 443.259 231.891 443.146 224.828C443.137 224.244 443.193 223.43 443.256 222.511C443.44 219.852 443.685 216.311 442.58 214.898C441.026 212.911 437.522 213.499 437.519 216.42Z" fill="#69A1AC"/>
<path fill-rule="evenodd" clip-rule="evenodd" d="M373.807 246.596C388.674 239.87 403.714 233.065 419.173 228.22C420.291 227.871 420.997 229.023 420.743 229.99C420.482 230.986 418.064 231.836 416.46 232.4C415.98 232.568 415.573 232.711 415.319 232.825C413.159 233.789 410.994 234.742 408.829 235.694C406.612 236.67 404.395 237.645 402.184 238.633C397.586 240.688 392.984 242.733 388.382 244.778C383.454 246.968 378.525 249.159 373.602 251.36C373.416 251.444 373.229 251.527 373.043 251.611C379.736 253.99 386.393 256.475 393.019 259.035C395.284 259.91 397.541 260.803 399.798 261.696C401.075 262.201 402.352 262.707 403.63 263.209C404.047 263.372 404.771 263.593 405.642 263.859C408.48 264.726 412.871 266.066 413.195 267.42C413.723 269.626 407.662 267.493 405.375 266.687C405.072 266.581 404.835 266.497 404.689 266.45C401.314 265.372 397.98 264.17 394.647 262.969L394.186 262.803C391.545 261.851 388.908 260.89 386.27 259.928C381.119 258.049 375.967 256.171 370.788 254.369C370.056 254.114 369.323 253.86 368.59 253.607C360.277 257.34 351.982 261.11 343.713 264.939C339.28 266.992 334.87 269.093 330.473 271.223C329.513 271.687 328.324 272.406 327.033 273.186C323.938 275.057 320.254 277.283 317.72 277.228C316.362 277.198 315.446 276.906 315.304 275.259C315.158 273.56 317.338 272.668 318.906 272.027C319.282 271.874 319.622 271.735 319.887 271.602C324.587 269.252 329.316 266.961 334.059 264.698C343.479 260.205 352.986 255.892 362.528 251.664C362.583 251.64 362.638 251.615 362.693 251.591C357.401 249.8 352.094 248.052 346.776 246.34C346.245 246.17 345.156 245.868 343.725 245.472C336.965 243.599 322.562 239.61 323.204 237.28C323.939 234.615 337.441 239.487 343.419 241.643C344.539 242.047 345.395 242.356 345.854 242.502C353.001 244.78 360.128 247.122 367.218 249.57C369.411 248.585 371.607 247.591 373.807 246.596Z" fill="#89C5CC"/>
<path fill-rule="evenodd" clip-rule="evenodd" d="M310.108 305.133C314.46 305.896 317.529 310.07 317.052 314.442C316.407 320.349 310.519 323.056 305.081 322.286C298.91 321.411 297.612 316.194 300.601 311.175C301.263 310.064 302.025 308.735 303.228 308.15C304.055 307.748 305.109 308.103 305.775 307.779C308.111 306.643 306.707 304.831 310.108 305.133ZM308.127 301.275C302.816 301.953 293.005 308.098 293.502 314.246C293.933 314.958 294.581 315.25 295.446 315.121C295.237 316.452 295.305 317.77 295.649 319.073C296.154 320.765 297.16 322.152 298.508 323.254C301.285 325.524 305.081 326.081 308.539 325.683C314.996 324.94 320.085 320.528 320.447 313.812C320.801 307.257 315.079 300.396 308.127 301.275Z" fill="#89C5CC"/>
<path fill-rule="evenodd" clip-rule="evenodd" d="M333.845 309.275C331.463 310.538 327.694 312.477 326.297 314.876C324.82 317.409 326.349 320.18 329.459 318.982C331.928 318.03 333.498 315.008 336.131 314.039C338.456 313.185 339.392 313.62 341.848 314.471C344.379 315.348 346.592 316.196 349.328 315.981C352.767 315.711 355.745 313.717 359.111 313.263C361.945 312.881 364.282 313.984 366.996 314.422C370.145 314.931 372.203 313.739 375.15 313.119C377.154 312.696 380.686 314.414 382.147 313.772C385.434 312.327 381.957 310.56 380.138 309.976C377.073 308.993 375.187 309.861 372.272 310.676C369.107 311.561 367.739 310.896 364.714 310.083C358.593 308.438 353.864 312.415 348.062 311.692C342.69 311.022 339.476 306.294 333.845 309.275Z" fill="#89C5CC"/>
<path fill-rule="evenodd" clip-rule="evenodd" d="M433.936 306.336C439.827 311.86 433.209 319.719 426.712 315.304C424.426 313.75 424.389 311.255 426.169 309.022C427.796 306.98 431.372 306.183 433.936 306.336ZM431.752 301.872C426.247 302.943 421.055 305.469 420.557 311.822C420.07 318.02 426.428 320.899 431.769 320.492C443.761 319.579 442.894 299.718 431.752 301.872Z" fill="#89C5CC"/>
</g>
<path opacity="0.5" fill-rule="evenodd" clip-rule="evenodd" d="M562.139 96.0057C557.736 96.0908 546.863 97.6923 545.247 102.901C544.02 106.854 547.665 105.986 549.618 104.548C552.261 102.602 554.578 101.438 557.853 100.846C570.326 98.5899 582.311 106.681 594.665 107.704C599.345 108.092 604.992 108.344 609.46 106.829C612.642 105.749 613.057 103.396 609.426 103.038C606.341 102.733 602.927 103.693 599.764 103.666C586.675 103.554 575.04 95.7596 562.139 96.0057Z" fill="#C1DEE2"/>
<g opacity="0.5">
<path fill-rule="evenodd" clip-rule="evenodd" d="M99.5092 343.362C91.085 343.457 82.6649 343.767 74.2574 344.299C66.262 344.806 57.587 344.421 49.7219 345.971C47.4885 346.411 44.4717 348.447 47.4412 350.685C49.5285 352.259 57.1651 350.449 59.6575 350.296C68.8366 349.732 78.0202 349.056 87.2123 348.731C95.9142 348.423 104.616 348.315 113.322 348.228C114.651 348.215 116.857 347.789 118.181 348.175C120.083 348.73 119.632 348.88 119.774 351.294C120.032 355.669 119.961 360.058 119.874 364.437C119.79 368.673 119.634 372.91 119.649 377.148C119.66 380.172 118.693 386.182 120.211 388.808C122.395 392.588 124.66 388.482 124.824 385.97C125.136 381.166 124.996 376.302 124.998 371.491C124.998 366.976 125.031 362.46 124.872 357.947C124.756 354.687 125.222 348.996 123.466 346.032C121.677 343.013 117.371 343.664 114.228 343.521C109.326 343.295 104.415 343.311 99.5092 343.362Z" fill="#89C5CC"/>
<path fill-rule="evenodd" clip-rule="evenodd" d="M45.9094 348.81C45.9186 357.294 44.9371 365.722 44.6622 374.196C44.5361 378.093 44.2802 382.371 45.2659 386.196C46.2608 390.058 49.4209 390.895 49.7849 386.583C50.5221 377.853 50.3413 368.8 50.9152 359.999C51.1178 356.892 52.4364 351.198 51.2055 348.288C50.1215 345.725 45.9047 345.234 45.9094 348.81Z" fill="#89C5CC"/>
<path fill-rule="evenodd" clip-rule="evenodd" d="M124.906 386.208C110.276 388.145 94.9815 387.439 80.2472 387.743C73.1781 387.889 66.1105 387.898 59.0405 387.972C56.5731 387.998 50.3071 387.059 48.1725 388.446C44.7745 390.654 48.4613 392.358 50.7109 392.407C64.663 392.713 78.7705 392.071 92.7199 391.613C98.9873 391.408 105.275 391.307 111.526 390.774C115.374 390.446 119.579 390.129 123.316 389.095C124.112 388.874 125.846 388.92 126.024 387.834C126.134 387.162 125.935 386.066 124.906 386.208Z" fill="#89C5CC"/>
<path fill-rule="evenodd" clip-rule="evenodd" d="M64.0698 398.54C60.0037 398.564 47.7508 396.676 46.0668 400.64C43.8219 405.928 52.5795 404.694 54.9348 404.634C60.2842 404.496 65.6299 404.481 70.9807 404.484C76.2309 404.486 81.4806 404.452 86.7299 404.327C88.2506 404.291 91.7905 404.922 92.6653 403.091C93.3302 401.699 92.8049 400.601 91.5786 399.864C88.628 398.091 80.9627 399.119 77.5082 398.96C73.0355 398.754 68.548 398.54 64.0698 398.54Z" fill="#89C5CC"/>
<path fill-rule="evenodd" clip-rule="evenodd" d="M113.537 399.519C111.213 399.658 106.512 398.7 104.431 399.763C102.065 400.972 102.898 402.865 104.941 403.696C106.356 404.272 112.159 403.97 113.537 403.303C114.973 402.607 116.597 399.331 113.537 399.519Z" fill="#89C5CC"/>
<path fill-rule="evenodd" clip-rule="evenodd" d="M139.012 349.643C136.531 350.324 137.283 364.414 137.219 366.648C137.044 372.767 136.356 380.464 138.39 386.358C139.686 390.115 142.177 389.606 141.753 385.65C141.38 382.178 140.741 378.747 140.464 375.252C139.838 367.345 138.986 358.911 139.578 350.997C139.829 351.457 142.184 355.722 142.738 355.404C142.57 355.503 140.022 349.377 139.012 349.643Z" fill="#89C5CC"/>
<path fill-rule="evenodd" clip-rule="evenodd" d="M166.93 344.454C161.907 344.528 156.885 344.617 151.864 344.756C147.871 344.867 141.598 344.211 137.937 345.891C133.577 347.89 135.645 352.345 139.74 352.44C143.363 352.523 147.226 351.706 150.881 351.581C160.754 351.243 170.645 351.171 180.522 351.086C189.456 351.009 198.769 351.962 207.624 350.621C208.937 362.283 205.385 373.995 206.593 385.792C206.78 387.623 206.696 390.21 209.028 390.627C211.971 391.154 212.092 388.239 212.203 386.152C212.522 380.193 212.349 374.229 212.786 368.262C213.19 362.732 213.986 357.081 213.313 351.542C212.486 344.727 209.22 345.273 203.447 344.99C191.254 344.392 179.137 344.275 166.93 344.454Z" fill="#89C5CC"/>
<path fill-rule="evenodd" clip-rule="evenodd" d="M150.097 385.866C147.538 385.931 143.287 385.142 141.647 387.596C139.941 390.149 141.966 392.376 144.446 392.901C147.383 393.521 151.212 392.671 154.26 392.661C157.434 392.652 160.609 392.687 163.783 392.7C177.391 392.753 191.058 392.959 204.656 392.396C206.555 392.318 211.945 392.955 213.26 391.133C214.426 389.518 213.61 388.068 212.074 387.245C209.554 385.895 204.377 386.408 201.574 386.301C198.112 386.17 194.646 386.126 191.182 386.073C177.511 385.862 163.767 385.528 150.097 385.866Z" fill="#89C5CC"/>
<path fill-rule="evenodd" clip-rule="evenodd" d="M161.609 397.671C156.516 397.758 151.083 397.534 146.041 398.306C141.607 398.986 141.062 403.271 145.834 403.772C150.219 404.234 155.536 403.372 159.943 403.089C161.508 402.989 163.329 403.131 164.079 401.401C164.862 399.593 163.365 397.86 161.609 397.671Z" fill="#89C5CC"/>
<path fill-rule="evenodd" clip-rule="evenodd" d="M200.108 398.12C197.39 398.188 189.451 397.02 188.105 400.124C185.863 405.293 196.611 403.329 198.673 403.253C201.272 403.157 211.4 404.675 211.402 400.538C211.404 396.481 202.597 398.059 200.108 398.12Z" fill="#89C5CC"/>
<path fill-rule="evenodd" clip-rule="evenodd" d="M45.4701 423.804C45.4766 433.206 44.8915 442.697 45.7492 452.076C46.1039 455.955 46.0431 463.385 48.2899 466.674C49.8848 469.008 52.0968 468.844 52.968 466.042C53.5503 464.168 52.6189 460.421 52.515 458.416C52.4149 456.492 52.298 454.569 52.209 452.645C51.9804 447.688 51.9985 442.738 52.0667 437.778C52.1251 433.524 53.1493 427.895 52.1835 423.804C51.2831 419.99 45.4701 419.099 45.4701 423.804Z" fill="#69A1AC"/>
<path fill-rule="evenodd" clip-rule="evenodd" d="M139.966 415.533C123.653 415.942 107.304 415.576 91.0052 416.384C82.9672 416.782 74.9607 417.656 66.963 418.528C63.0337 418.957 59.1067 419.398 55.1844 419.882C54.0007 420.027 44.1652 420.409 47.8645 424.149C49.4798 425.782 54.6201 424.076 56.6541 423.835C60.5922 423.371 64.5382 422.965 68.4818 422.548C75.9862 421.754 83.4999 421.002 91.0363 420.585C108.786 419.602 126.608 419.897 144.375 419.241C149.181 419.064 153.973 418.937 158.781 419.126C160.043 419.176 169.32 419.647 165.292 416.221C163.388 414.6 156.207 415.437 153.826 415.388C149.207 415.292 144.584 415.417 139.966 415.533Z" fill="#69A1AC"/>
<path fill-rule="evenodd" clip-rule="evenodd" d="M162.205 431.373C162.124 427.029 162.044 422.685 161.846 418.344C161.638 413.773 167.864 413.081 169.711 416.781C171.04 419.445 170.807 423.977 170.606 427.862C170.525 429.427 170.45 430.888 170.485 432.078C170.564 434.806 170.765 437.628 170.968 440.486C171.48 447.68 172.008 455.111 170.664 461.902C170.01 465.202 167.226 466.936 165.373 465.138C165.371 465.141 165.368 465.145 165.366 465.149C164.669 466.176 162.499 466.174 160.902 466.172C160.462 466.172 160.065 466.171 159.754 466.192C155.377 466.49 151.081 466.992 146.743 467.642C138.099 468.938 129.53 469.734 120.793 469.95C114.864 470.097 108.927 470.146 102.988 470.196C91.6168 470.29 80.2394 470.384 68.904 471.162C65.0822 471.425 61.3184 471.875 57.5593 472.594C57.2393 472.655 56.884 472.734 56.5057 472.819C53.7106 473.44 49.6642 474.34 49.3877 470.434C49.0591 465.798 59.1072 465.19 64.278 464.878C65.0675 464.83 65.7433 464.789 66.2511 464.742C81.9516 463.282 97.8985 463.508 113.666 463.732C114.43 463.742 115.193 463.753 115.956 463.764C117.187 463.781 118.417 463.801 119.647 463.821C126.398 463.933 133.14 464.044 139.889 463.631C142.96 463.443 146.071 463.346 149.189 463.25C154.161 463.096 159.149 462.941 164.012 462.414C163.279 459.57 163.151 456.214 163.03 453.051C162.983 451.819 162.937 450.617 162.857 449.485C162.429 443.456 162.317 437.415 162.205 431.373Z" fill="#69A1AC"/>
<path fill-rule="evenodd" clip-rule="evenodd" d="M175.407 421.693C173.204 421.993 171.365 423.879 172.349 426.271C173.588 429.283 177.279 428.106 179.718 427.916C187.468 427.308 195.56 428.521 203.216 427.606C205.307 427.356 208.341 426.217 206.463 423.408C205.052 421.296 199.91 421.667 197.725 421.464C190.25 420.773 182.873 420.957 175.407 421.693Z" fill="#C1DEE2"/>
<path fill-rule="evenodd" clip-rule="evenodd" d="M188.488 434.835C185.482 435.037 178.486 434.878 177.219 438.298C174.947 444.433 183.846 442.271 186.556 441.922C189.703 441.517 197.123 442.602 198.799 439.55C201.796 434.091 191.124 434.653 188.488 434.835Z" fill="#C1DEE2"/>
<path fill-rule="evenodd" clip-rule="evenodd" d="M180.759 448.298C179.333 449.724 179.331 452.271 180.759 453.698C182.507 455.445 186.316 455.082 188.613 455.209C191.818 455.388 201.02 457.083 202.612 453.31C204.758 448.219 196.425 448.326 193.684 448.037C190.516 447.704 183.384 445.671 180.759 448.298Z" fill="#C1DEE2"/>
<path fill-rule="evenodd" clip-rule="evenodd" d="M68.4365 361.159C68.4365 366.632 76.9845 366.632 76.9845 361.159C76.9845 355.715 68.4365 355.632 68.4365 361.159Z" fill="#89C5CC"/>
<path fill-rule="evenodd" clip-rule="evenodd" d="M84.6514 361.221C84.6514 367.478 94.3877 367.465 94.3877 361.221C94.3877 354.986 84.6514 354.922 84.6514 361.221Z" fill="#89C5CC"/>
<path fill-rule="evenodd" clip-rule="evenodd" d="M74.8422 369.54C70.1094 370.847 74.4695 374.858 76.6671 375.774C80.1596 377.231 84.9263 378.304 88.4198 376.121C89.8097 375.252 90.9382 374.097 89.9196 372.411C88.8342 370.616 87.3483 371.414 85.6959 371.579C83.6026 371.79 81.9108 371.758 79.8893 371.086C78.3807 370.585 76.4877 369.087 74.8422 369.54Z" fill="#89C5CC"/>
<path fill-rule="evenodd" clip-rule="evenodd" d="M160.689 361.505C160.689 365.207 166.438 365.207 166.438 361.505C166.438 357.803 160.689 357.803 160.689 361.505Z" fill="#89C5CC"/>
<path fill-rule="evenodd" clip-rule="evenodd" d="M173.402 362.062C173.402 366.175 179.788 366.176 179.788 362.062C179.788 357.949 173.402 357.949 173.402 362.062Z" fill="#89C5CC"/>
<path fill-rule="evenodd" clip-rule="evenodd" d="M172.929 370.989C169.575 371.421 159.873 372.405 159.33 376.539C158.493 382.918 169.123 377.756 171.549 377.255C174.639 376.617 177.399 376.783 180.484 376.907C182.177 376.975 184.43 377.25 184.253 374.669C183.962 370.433 175.861 370.613 172.929 370.989Z" fill="#89C5CC"/>
<path fill-rule="evenodd" clip-rule="evenodd" d="M88.5911 429.815C86.1598 430.463 82.9792 434.667 84.652 437.239C87.3949 441.458 88.6045 434.98 89.7525 434.357C91.8412 433.222 93.5367 437.368 95.7195 435.193C99.1638 431.762 90.7595 429.234 88.5911 429.815Z" fill="#69A1AC"/>
<path fill-rule="evenodd" clip-rule="evenodd" d="M116.45 426.696C113.566 426.722 107.479 430.805 107.048 433.819C106.792 435.61 107.98 437.33 109.91 437.354C112.539 437.386 113.375 433.968 115.653 433.254C118.111 432.483 117.747 434.258 119.87 435.178C121.423 435.852 123.366 435.57 123.906 433.66C124.924 430.057 119.412 426.639 116.45 426.696Z" fill="#69A1AC"/>
<path fill-rule="evenodd" clip-rule="evenodd" d="M94.3793 443.954C89.7676 446.656 97.3559 452.449 99.9865 453.174C103.958 454.267 111.951 452.226 112.892 447.375C113.267 445.444 112.059 443.695 109.928 444.041C108.174 444.326 107.049 446.527 105.424 447.315C103.23 448.378 101.28 448.306 99.4163 446.705C97.8979 445.4 97.0846 442.376 94.3793 443.954Z" fill="#69A1AC"/>
<path fill-rule="evenodd" clip-rule="evenodd" d="M97.7222 483.886C93.6018 484.764 89.4134 484.175 85.2731 485.001C81.0513 485.844 78.5282 487.439 74.6058 485.832C74.4213 485.754 74.2372 485.676 74.0532 485.598C71.0173 484.291 67.8354 483.903 64.6576 485.988C62.7771 487.221 57.0684 491.486 57.7564 494.089C59.2475 499.732 65.6711 490.883 67.3091 490.021C70.4326 488.377 72.5742 490.478 75.7899 491.07C79.6418 491.781 82.7412 489.745 86.3696 488.935C90.6133 487.986 95.3873 487.656 99.7047 487.149C101.41 486.948 107.871 488.297 108.454 486.174C109.456 482.528 99.3416 483.542 97.7222 483.886Z" fill="#C1DEE2"/>
<path fill-rule="evenodd" clip-rule="evenodd" d="M127.449 495.25C127.719 495.454 127.503 495.29 127.449 495.25V495.25ZM138.989 483.664C142.516 483.307 153.802 480.787 156.119 484.432C157.629 486.806 155.233 495.568 152.949 496.702C151.122 497.607 146.869 496.606 144.865 496.535C141.136 496.404 137.4 496.345 133.675 496.113C132.426 496.035 128.407 496.265 127.428 495.159C126.272 493.854 126.323 486.895 126.051 485.169C129.294 486.219 135.598 484.009 138.989 483.664ZM146.521 480.091C142.004 480.287 137.487 480.626 133.003 481.232C130.504 481.57 127.971 482.468 125.663 482.893C124.919 483.031 123.711 482.65 122.799 483.091C120.132 484.379 122.467 493.088 123.11 495.415C124.098 498.989 126.583 499.568 130.066 499.905C134.653 500.35 139.334 500.21 143.936 500.153C148.371 500.099 154.352 501.082 156.841 496.631C158.45 493.754 160.175 487.053 158.8 483.846C156.991 479.626 150.236 479.935 146.521 480.091Z" fill="#C1DEE2"/>
<path fill-rule="evenodd" clip-rule="evenodd" d="M197.11 497.644C196.869 497.954 196.869 497.954 197.11 497.644V497.644ZM198.1 496.451C198.026 496.564 197.679 496.93 198.1 496.451V496.451ZM187.327 496.123C189.318 495.748 191.31 495.377 193.304 495.014C191.416 497.656 189.428 496.564 186.203 496.334C186.578 496.263 186.952 496.193 187.327 496.123ZM177.826 495.188C178.331 495.019 178.835 494.85 179.34 494.681C179.325 495.065 179.407 495.425 179.588 495.76C178.724 495.667 177.86 495.567 176.998 495.46C177.274 495.369 177.55 495.279 177.826 495.188ZM173.423 491.937C173.395 491.243 174.438 491.719 175.035 491.673C173.883 492.687 173.346 492.775 173.423 491.937ZM189.169 484.072C189.32 483.879 189.521 483.889 189.771 484.101C189.498 484.193 188.448 484.638 189.169 484.072ZM199.38 482.871C199.407 482.871 199.973 483.636 199.38 482.871V482.871ZM199.093 482.621C199.242 482.734 199.242 482.734 199.093 482.621V482.621ZM197.819 482.472C199.907 482.824 199.748 485.274 197.819 482.472V482.472ZM173.29 482.305C172.866 482.657 173.011 482.315 173.29 482.305V482.305ZM181.275 477.088C177.73 477.295 171.224 477.087 168.264 478.975C164.401 481.441 166.433 489.926 166.779 493.646C167.29 499.145 169.877 500.71 175.055 501.287C181.235 501.976 187.585 502.105 193.796 501.941C199.391 501.794 202.577 499.87 203.601 493.98C203.915 492.178 204.712 489.39 204.687 487.664C204.67 486.466 204.073 485.92 203.847 484.902C202.562 479.105 200.414 478.418 194.472 478.165C190.099 477.979 185.565 476.864 181.275 477.088Z" fill="#89C5CC"/>
</g>
<g opacity="0.5">
<path fill-rule="evenodd" clip-rule="evenodd" d="M369.032 343.913C378.044 344.105 388.269 349.092 386.844 359.658C385.8 367.399 379.098 373.682 371.336 374.224C362.995 374.806 354.175 368.404 353.042 359.91C351.766 350.357 360.22 343.722 369.032 343.913ZM364.613 339.611C360.96 340.157 357.469 342.075 354.252 343.794C353.024 344.45 346.798 348.451 351.681 349.445C339.916 368.419 367.604 386.043 383.171 373.711C390.161 368.174 393.841 357.675 389.323 349.457C384.649 340.957 373.566 338.267 364.613 339.611Z" fill="#89C5CC"/>
<path fill-rule="evenodd" clip-rule="evenodd" d="M362.46 355.761C362.46 359.305 367.96 359.305 367.96 355.761C367.96 352.218 362.46 352.218 362.46 355.761Z" fill="#89C5CC"/>
<path fill-rule="evenodd" clip-rule="evenodd" d="M372.658 356.329C372.658 360.171 378.621 360.171 378.621 356.329C378.621 352.487 372.658 352.487 372.658 356.329Z" fill="#89C5CC"/>
<path fill-rule="evenodd" clip-rule="evenodd" d="M365.775 363.927C364.973 366.842 374.123 368.336 374.428 364.963C374.573 363.351 366.333 361.893 365.775 363.927Z" fill="#89C5CC"/>
<path fill-rule="evenodd" clip-rule="evenodd" d="M392.6 362.125C403.129 360.862 413.985 361.446 424.565 361.749C427.213 361.825 429.861 361.899 432.509 361.943C434.193 361.972 437.829 362.78 439.298 361.992C445.315 358.765 433.512 357.204 431.84 357.056C421.316 356.19 405.075 355.881 394.52 356.29C391.398 356.411 390.724 362.35 392.6 362.125Z" fill="#89C5CC"/>
<path fill-rule="evenodd" clip-rule="evenodd" d="M439.98 414.468C440.071 403.436 440.466 392.329 441.314 381.33C441.659 376.846 442.074 372.369 442.417 367.886C442.579 365.774 443.329 362.816 442.088 360.963C440.809 359.054 438.003 358.657 436.312 360.349C434.288 362.969 434.876 367.367 434.625 370.536C434.238 375.409 433.77 380.279 433.538 385.163C433.089 394.616 432.983 404.233 433.743 413.672C434.102 418.126 434.879 422.472 435.914 426.816C436.385 428.794 440.133 437.602 439.345 438.817C438.124 440.701 429.099 439.989 427.141 440.041C422.118 440.176 417.092 440.264 412.067 440.36C407.765 440.442 403.463 440.501 399.16 440.539C397.452 440.554 387.414 440.25 389.641 442.783C364.742 444.518 339.366 441.621 314.619 440.628C313.369 440.577 311.323 440.223 309.435 440.121C309.209 439.209 309.023 438.394 308.977 437.827C308.652 433.85 308.567 429.859 308.215 425.883C307.569 418.608 306.318 411.406 305.574 404.143C304.831 396.888 304.906 389.611 304.474 382.338C304.4 381.092 304.224 370.884 301.648 368.404C302.87 368.867 304.839 368.927 305.973 368.835C315.153 368.095 324.267 366.5 333.368 365.13C335.972 364.739 341.881 365.016 344.041 363.715C345.91 362.588 346.65 358.637 343.398 358.957C334.323 359.929 325.296 361.438 316.292 362.923C313.883 363.321 311.481 363.745 309.079 364.18C307.475 364.469 303.241 364.447 301.997 365.414C300.486 366.588 300.326 367.387 300.838 367.918C300.126 367.722 299.273 368.03 298.248 369.055C296.311 371.577 298.132 377.788 298.363 380.745C298.641 384.292 298.777 387.845 298.939 391.398C299.251 398.274 299.97 405.055 301.077 411.849C302.317 419.459 303.371 427.101 304.614 434.709C304.938 436.69 305.359 438.622 305.898 440.536C302.549 442.249 304.826 444.972 307.482 445.455C307.501 445.459 307.521 445.462 307.54 445.465C308.367 447.484 309.525 449.354 310.43 446.649C310.499 446.442 310.531 446.186 310.539 445.899C317.399 446.675 324.938 446.193 331.691 446.469C346.319 447.067 361.037 447.964 375.68 447.509C381.477 447.329 387.291 446.815 393.04 446.041C396.407 445.588 399.788 445.047 403.102 444.296C403.339 444.243 403.7 444.186 404.117 444.117C404.185 444.115 404.254 444.114 404.319 444.113C409.393 444.036 414.463 443.9 419.533 443.689C423.789 443.513 428.064 443.422 432.306 443.02C434.941 442.771 440.51 442.817 442.128 440.167C443.599 437.758 441.139 431.551 440.79 428.845C440.176 424.079 439.941 419.27 439.98 414.468Z" fill="#C1DEE2"/>
<path fill-rule="evenodd" clip-rule="evenodd" d="M388.556 382.613C384.502 382.96 380.752 384.864 376.66 384.888C373.226 384.908 369.844 383.881 366.391 384.033C362.34 384.21 360.111 386.829 356.562 387.706C353.737 388.403 351.957 386.241 349.473 385.284C346.335 384.076 344.018 384.7 341.329 386.527C339.353 387.87 334.745 390.883 334.78 393.598C334.886 401.824 344.483 390.461 346.418 390.323C348.988 390.14 351.86 393.071 354.595 393.237C358.211 393.459 360.53 391.128 363.86 390.278C367.227 389.419 370.867 390.472 374.242 390.798C378.094 391.171 381.464 390.312 385.19 389.393C388.801 388.502 391.879 388.549 395.548 389.297C398.024 389.802 404.193 392.738 405.276 388.963C406.752 383.822 391.391 382.372 388.556 382.613Z" fill="#89C5CC"/>
<path fill-rule="evenodd" clip-rule="evenodd" d="M389.791 398.302C381.482 399.108 373.124 399.815 364.778 400.042C361.163 400.14 347.267 398.591 348.499 403.184C349.555 407.123 368.466 404.643 372.317 404.343C376.569 404.013 380.815 403.551 385.046 403.015C386.546 402.826 390.167 403.022 391.225 401.764C392.234 400.565 391.736 398.107 389.791 398.302Z" fill="#89C5CC"/>
<path fill-rule="evenodd" clip-rule="evenodd" d="M332.476 419.22C332.286 419.3 332.286 419.3 332.476 419.22V419.22ZM334.228 419.197C336.299 419.131 335.855 418.039 337.922 418.608C338.875 418.871 338.972 418.481 339.711 419.392C341.153 421.169 339.795 425.039 338.374 426.47C333.113 431.773 326.799 419.432 334.228 419.197ZM334.228 413.995C319.825 414.479 325.851 436.728 338.387 432.186C343.564 430.31 346.818 421.86 343.773 417.111C342.292 414.801 340.403 414.391 337.922 414.23C337.345 414.193 336.621 415.031 336.261 414.993C335.406 414.902 335.486 413.948 334.228 413.995Z" fill="#89C5CC"/>
<path fill-rule="evenodd" clip-rule="evenodd" d="M368.671 419.983C368.414 419.903 373.219 421.3 372.693 420.753C373.815 421.92 372.307 424.679 371.038 425.16C367.965 426.327 366.24 421.548 368.671 419.983ZM370.803 413.95C366.293 414.589 362.813 416.467 362.196 421.482C361.628 426.111 364.755 430.798 369.689 430.889C380.442 431.085 380.769 412.559 370.803 413.95Z" fill="#89C5CC"/>
<path fill-rule="evenodd" clip-rule="evenodd" d="M419.893 420.186C420.523 428.406 411.999 420.882 419.893 420.186V420.186ZM416.235 411.392C415.49 412.666 416.125 414.018 417.25 414.759C407.196 416.884 409.473 432.013 419.704 429.778C424.907 428.641 425.864 423.17 425.088 418.653C424.719 416.505 419.366 406.038 416.235 411.392Z" fill="#89C5CC"/>
</g>
<path opacity="0.5" fill-rule="evenodd" clip-rule="evenodd" d="M440.021 419.286C437.024 419.819 429.939 423.129 430 426.684C430.096 432.234 436.118 426.172 437.458 425.357C444.653 420.978 453.973 426.652 461.466 427.86C464.901 428.413 471.621 429.436 474.655 427.134C480.051 423.04 467.572 424.065 465.982 423.9C457.344 423.008 448.75 417.727 440.021 419.286Z" fill="#C1DEE2"/>
<g opacity="0.5">
<path fill-rule="evenodd" clip-rule="evenodd" d="M581.586 380.267C581.583 385.946 581.296 391.741 582.343 397.352C582.659 399.05 582.909 402.303 584.701 403.185C586.501 404.07 588.246 403.075 588.693 401.23C589.215 399.084 588.07 395.871 587.955 393.618C587.795 390.539 587.785 387.457 587.783 384.375C587.782 382.149 588.515 378.568 585.887 377.423C583.933 376.572 581.586 378.155 581.586 380.267Z" fill="#C1DEE2"/>
<path fill-rule="evenodd" clip-rule="evenodd" d="M671.353 371.287C652.541 373.175 633.457 373.568 614.576 374.552C605.849 375.007 595.301 374.427 587.079 377.805C585.552 378.433 580.084 381.924 584.523 383.346C585.907 383.79 587.313 382.299 588.449 381.799C590.341 380.968 592.532 380.711 594.55 380.387C611.706 377.632 629.651 378.111 646.984 376.824C651.425 376.494 655.869 376.154 660.301 375.718C663.467 375.407 670.122 373.125 673.044 374.292C678.038 376.287 677.921 389.246 678.019 393.703C678.071 396.009 675.833 404.283 680.281 403.444C683.84 402.773 682.552 394.177 682.274 391.825C681.546 385.662 680.305 370.38 671.353 371.287Z" fill="#C1DEE2"/>
<path fill-rule="evenodd" clip-rule="evenodd" d="M678.291 403.145C661.95 404.62 645.233 403.173 628.824 403.753C620.224 404.058 611.632 404.542 603.03 404.826C599.31 404.949 595.586 404.955 591.864 404.981C590.084 404.993 581.983 406.072 586.994 409.602C589.213 411.164 596.285 409.906 598.831 409.875C602.656 409.83 606.478 409.671 610.3 409.521C619.152 409.175 627.999 408.696 636.856 408.456C645.328 408.227 653.805 408.178 662.277 407.948C666.492 407.834 670.765 407.704 674.943 407.089C675.886 406.95 678.948 406.84 679.603 405.788C680.222 404.794 679.787 403.001 678.291 403.145Z" fill="#89C5CC"/>
<path fill-rule="evenodd" clip-rule="evenodd" d="M597.978 390.876C597.89 391.084 597.89 391.084 597.978 390.876V390.876ZM605.055 388.725C605.313 388.835 605.313 388.835 605.055 388.725V388.725ZM604.723 388.666C608.537 392.553 602.672 397.193 599.1 393.399C595.308 389.373 602.268 388.679 604.723 388.666ZM600.679 382.785C587.543 385.122 592.194 402.629 604.462 400.099C609.848 398.988 612.928 393.562 611.075 388.35C610.35 386.314 608.772 384.079 606.573 383.437C605.477 383.117 604.507 383.62 603.463 383.503C602.467 383.391 601.915 382.562 600.679 382.785Z" fill="#C1DEE2"/>
<path fill-rule="evenodd" clip-rule="evenodd" d="M650.95 387.712C643.029 387.737 635.106 388.074 627.187 388.224C624.757 388.27 618.514 387.183 618.504 391.012C618.493 395.104 625.448 393.593 627.763 393.538C635.618 393.35 643.494 393.006 651.319 392.258C653.295 392.069 660.137 392.395 660.13 389.707C660.123 386.86 652.546 387.712 650.95 387.712Z" fill="#C1DEE2"/>
<path fill-rule="evenodd" clip-rule="evenodd" d="M669.868 414.421C650.278 414.946 630.717 415.129 611.143 416.132C603.821 416.507 596.509 416.786 589.177 416.786C587.765 416.786 584.921 416.239 583.592 417.128C579.985 419.541 584.093 421.611 586.443 421.741C602.524 422.634 618.837 420.413 634.908 419.911C644.317 419.618 653.728 419.531 663.131 419.053C665.696 418.922 668.261 418.77 670.823 418.572C672.295 418.458 676.19 418.77 677.381 417.909C682.578 414.147 671.621 414.373 669.868 414.421Z" fill="#89C5CC"/>
<path fill-rule="evenodd" clip-rule="evenodd" d="M579.986 424C579.801 429.079 579.782 434.07 580.447 439.121C580.708 441.108 580.828 443.364 583.158 443.869C585.274 444.327 586.347 442.727 586.785 440.953C587.855 436.62 586.914 430.384 586.901 425.883C586.895 423.657 586.893 421.166 584.143 420.663C582.045 420.279 580.066 421.795 579.986 424Z" fill="#89C5CC"/>
<path fill-rule="evenodd" clip-rule="evenodd" d="M690.633 436.245C658.922 437.916 627.252 439.375 595.517 440.716C593.042 440.821 573.816 440.611 580.538 447.316C582.614 449.387 587.963 447.984 590.647 447.853C594.682 447.654 598.719 447.503 602.753 447.298C618.75 446.483 634.788 446.264 650.773 445.35C659.57 444.847 668.346 444.06 677.097 443.036C681.259 442.549 686.426 442.599 690.324 440.968C692.329 440.129 694.494 436.04 690.633 436.245Z" fill="#89C5CC"/>
<path fill-rule="evenodd" clip-rule="evenodd" d="M672.399 410.48C669.988 412.881 671.228 417.62 671.41 420.588C671.66 424.674 671.963 428.762 672.473 432.824C672.805 435.464 672.63 439.571 674.038 441.851C675.686 444.521 679.317 444.225 680.807 441.646C682.126 439.365 681.459 434.565 681.424 432.038C681.377 428.542 681.16 425.041 680.952 421.552C680.779 418.637 681.439 413.964 679.835 411.468C678.206 408.933 674.659 408.232 672.399 410.48Z" fill="#89C5CC"/>
<path fill-rule="evenodd" clip-rule="evenodd" d="M599.917 429.118C599.634 429.336 599.634 429.336 599.917 429.118V429.118ZM605.549 428.412C610.805 429.47 602.307 435.606 599.621 431.394C599.202 430.736 598.983 429.927 599.657 429.356C600.271 428.833 600.657 429.758 601.238 429.509C602.238 429.081 604.482 428.373 605.549 428.412ZM604.824 423.375C601.236 423.659 596.303 423.88 594.527 427.477C592.141 432.308 596.221 437.04 600.942 437.775C605.485 438.482 612.267 435.966 612.631 430.668C612.924 426.396 608.861 423.047 604.824 423.375Z" fill="#89C5CC"/>
<path fill-rule="evenodd" clip-rule="evenodd" d="M634.781 425.93C631.066 425.99 623.765 424.892 620.529 426.702C617.327 428.494 618.755 431.684 621.676 432.447C623.607 432.951 626.763 432.138 628.773 432.056C631.418 431.948 634.064 431.925 636.71 431.888C641.161 431.828 645.609 431.879 650.06 431.879C654.605 431.879 659.228 432.003 663.766 431.669C669.508 431.246 669.353 426.947 663.738 426.41C654.199 425.497 644.35 425.78 634.781 425.93Z" fill="#89C5CC"/>
<path fill-rule="evenodd" clip-rule="evenodd" d="M625.292 474.08C625.292 476.122 627.104 474.08 627.091 474.08C627.104 474.08 625.292 472.037 625.292 474.08Z" fill="#89C5CC"/>
<path fill-rule="evenodd" clip-rule="evenodd" d="M584.297 457.637C584.414 463.574 584.491 469.517 584.744 475.449C584.825 477.325 584.288 480.989 586.561 481.945C589.092 483.01 589.879 480.356 590.171 478.558C591.094 472.862 590.189 466.358 590.1 460.594C590.07 458.659 590.489 455.964 588.291 454.999C586.498 454.212 584.261 455.674 584.297 457.637Z" fill="#89C5CC"/>
<path fill-rule="evenodd" clip-rule="evenodd" d="M681.936 457.729C682.086 458.083 682.086 458.083 681.936 457.729V457.729ZM682.147 457.669C682.269 457.72 682.761 457.926 682.147 457.669V457.669ZM634.184 452.87C625.069 453.013 615.948 453.121 606.839 453.511C602.952 453.678 599.02 453.813 595.145 454.179C592.401 454.439 585.585 454.547 583.805 456.789C580.132 461.418 587.921 460.155 589.598 459.78C592.651 459.095 595.767 458.876 598.886 458.711C605.653 458.355 612.424 458.164 619.199 458.027C637.574 457.658 655.962 457.714 674.34 457.631C676.119 457.623 679.335 456.907 680.979 457.627C682.625 458.349 682.532 460.122 682.703 462.181C682.931 464.921 681.123 470.142 682.5 472.447C684.636 476.022 687.742 472.986 688.217 470.38C688.873 466.779 687.833 462.455 686.815 459.013C685.379 454.156 683.386 453.963 678.688 453.583C673.2 453.14 667.731 452.871 662.224 452.82C652.88 452.734 643.528 452.725 634.184 452.87Z" fill="#89C5CC"/>
<path fill-rule="evenodd" clip-rule="evenodd" d="M670.233 477.413C650.464 479.709 630.132 478.356 610.257 478.437C605.424 478.457 600.586 478.496 595.758 478.73C593.208 478.854 587.162 478.151 585.415 480.118C581.732 484.265 588.366 484.869 590.788 484.697C595.685 484.349 600.594 484.19 605.503 484.152C622.796 484.018 640.186 484.825 657.465 483.972C664.704 483.615 671.781 482.376 678.886 480.993C680.46 480.686 691.235 478.638 685.091 476.182C681.459 474.732 674.048 476.968 670.233 477.413Z" fill="#89C5CC"/>
<path fill-rule="evenodd" clip-rule="evenodd" d="M612.512 469.822C612.374 469.999 612.374 469.999 612.512 469.822V469.822ZM612.379 469.791C612.332 469.918 612.187 470.232 612.379 469.791V469.791ZM611.132 468.183C611.161 468.22 611.278 468.371 611.132 468.183V468.183ZM611.084 468.171C611.56 468.739 611.881 469.373 612.045 470.072C607.949 471.182 606.371 467.868 611.084 468.171ZM610.825 468.016C610.826 468.017 611.402 468.259 610.825 468.016V468.016ZM604.096 463.079C601.445 466.38 599.257 470.227 602.562 473.998C605.517 477.37 611.463 477.805 615.213 475.554C619.077 473.235 618.743 468.352 616.048 465.165C614.313 463.113 612.906 463.17 610.388 462.835C608.674 462.607 605.551 461.274 604.096 463.079Z" fill="#89C5CC"/>
<path fill-rule="evenodd" clip-rule="evenodd" d="M631.5 469.188C631.5 473.584 650.481 471.692 653.858 471.687C656.687 471.683 673.79 473.243 672.563 468.72C671.554 465.003 654.707 466.85 651.119 466.845C648.017 466.84 631.5 464.711 631.5 469.188Z" fill="#89C5CC"/>
</g>
<g opacity="0.5">
<path fill-rule="evenodd" clip-rule="evenodd" d="M383.7 510.375C393.206 511.756 403.094 516.226 403.011 527.291C402.941 536.594 395.139 546.496 385.119 545.94C376.103 545.44 367.612 535.58 366.483 527.13C365.898 522.752 366.993 518.038 369.568 514.437C372.942 509.718 378.296 509.726 383.7 510.375ZM379.21 504.361C372.334 504.399 367.304 506.886 363.049 512.135C361.523 514.018 359.748 516.044 358.586 518.177C357.501 520.168 357.691 525.233 361.415 522.859C360.498 532.664 366.229 542.182 374.467 547.206C383.422 552.668 393.544 551.603 400.997 543.948C407.819 536.94 410.22 525.103 405.229 516.436C400.241 507.773 388.683 504.268 379.21 504.361Z" fill="#89C5CC"/>
<path fill-rule="evenodd" clip-rule="evenodd" d="M399.826 501.733C395.424 504.959 391.405 509.208 388.067 513.516C384.804 517.728 382.647 522.987 378.727 526.659C376.748 524.503 374.429 518.68 370.48 520.991C367.203 522.908 369.313 526.204 370.909 528.369C375.03 533.958 379.606 536.208 384.891 530.685C389.691 525.67 392.417 518.98 396.905 513.676C398.873 511.349 401.915 509.039 403.482 506.47C404.903 504.141 403.146 499.293 399.826 501.733Z" fill="#89C5CC"/>
</g>
<g opacity="0.5">
<path fill-rule="evenodd" clip-rule="evenodd" d="M566.175 151.877C566.182 152.317 566.188 152.731 566.197 153.111C566.403 161.416 566.284 170.146 565.609 178.431C565.376 181.291 563.295 184.917 560.921 180.974C559.877 179.24 560.024 175.68 560.131 173.06C560.16 172.358 560.186 171.724 560.186 171.21C560.184 168.288 560.337 165.335 560.491 162.375C560.792 156.588 561.095 150.77 560.238 145.086C560.221 144.971 560.204 144.86 560.189 144.754C559.816 142.254 559.791 142.082 557.042 142.139C555.896 142.162 554.75 142.193 553.605 142.224C552.478 142.255 551.351 142.285 550.224 142.309C549.104 142.332 547.985 142.354 546.866 142.375C543.356 142.443 539.846 142.51 536.337 142.639C535.752 142.661 534.659 142.798 533.281 142.97C530.524 143.316 526.624 143.805 523.342 143.803C523.343 143.817 523.344 143.831 523.345 143.845C523.347 143.87 523.349 143.896 523.349 143.922C523.386 145.734 522.919 147.756 522.45 149.788C522.058 151.49 521.664 153.198 521.563 154.795C521.322 158.594 521.319 162.433 521.317 166.273C521.313 170.947 521.31 175.622 520.877 180.225C520.856 180.449 520.843 180.687 520.83 180.927C520.829 180.958 520.827 180.99 520.825 181.022C520.974 181 521.118 180.984 521.257 180.975C523.623 180.825 526.008 180.812 528.39 180.798C529.704 180.791 531.016 180.784 532.323 180.753C534.671 180.699 537.048 180.701 539.434 180.704C544.701 180.71 550.015 180.715 555.167 180.108C556.689 179.911 557.221 181.863 556.538 182.875C555.927 183.781 554.244 183.927 553.012 184.035C552.699 184.062 552.415 184.087 552.185 184.121C548.862 184.613 545.495 184.785 542.142 184.933C538.621 185.089 535.096 185.206 531.573 185.304C530.734 185.327 529.615 185.44 528.374 185.566C525.097 185.897 520.972 186.314 518.925 185.387C516.724 184.392 516.776 183.287 517.674 182.43C517.28 181.564 517.218 180.299 517.169 179.309C517.151 178.931 517.134 178.593 517.102 178.333C516.614 174.392 516.319 170.501 516.312 166.526C516.298 158.739 516.314 150.653 518.468 143.116C517.605 142.738 517.085 142.181 517.087 141.379C517.097 137.335 529.682 137.541 535.665 137.638C536.735 137.656 537.593 137.67 538.131 137.656C542.489 137.542 546.848 137.527 551.207 137.551C552.128 137.555 553.153 137.495 554.215 137.433C556.474 137.3 558.901 137.157 560.852 137.611C565.978 138.801 566.101 146.964 566.175 151.877Z" fill="#89C5CC"/>
<path fill-rule="evenodd" clip-rule="evenodd" d="M598.235 138.498C602.994 138.246 607.756 138.188 612.521 138.17C617.566 138.145 622.619 138.236 627.662 138.391L627.778 138.394C630.013 138.461 642.433 138.834 636.727 141.929C636.394 142.11 636.019 142.261 635.61 142.386C635.852 143.819 635.881 145.299 635.842 146.011C635.695 148.715 635.598 151.421 635.501 154.127C635.435 155.961 635.369 157.795 635.288 159.628C635.063 164.693 634.849 169.757 634.675 174.824C634.653 175.446 634.686 176.259 634.723 177.166C634.844 180.163 635.007 184.18 633.379 185.665C631.951 186.968 630.974 186.707 630.317 185.822C626.228 187.009 617.833 186.623 613.611 186.429C612.594 186.382 611.819 186.346 611.405 186.347C610.665 186.347 609.29 186.439 607.553 186.556C600.324 187.041 586.83 187.948 586.802 184.384C586.799 184.041 586.911 183.734 587.12 183.459C586.548 182.874 586.032 182.016 585.701 180.945C584.513 177.102 584.401 172.954 584.313 168.968C584.189 163.34 584.187 157.705 584.186 152.072C584.185 149.179 584.185 146.286 584.167 143.394C583.395 142.356 583.853 141.169 584.818 140.341C586.87 138.579 591.966 138.558 595.652 138.542C596.644 138.538 597.534 138.535 598.235 138.498ZM590.491 181.895C595.078 180.916 602.807 181.231 606.948 181.4C608.032 181.444 608.871 181.478 609.342 181.477C613.571 181.46 617.802 181.519 622.028 181.688C622.465 181.705 623.114 181.689 623.878 181.67C625.412 181.631 627.412 181.581 629.111 181.769C629.088 181.539 629.073 181.328 629.064 181.146C628.873 177.385 629.011 173.591 629.148 169.818V169.818C629.177 169.016 629.206 168.215 629.232 167.415C629.322 164.594 629.443 161.775 629.563 158.955L629.563 158.955L629.563 158.954C629.639 157.179 629.715 155.403 629.783 153.628C629.813 152.849 629.768 151.791 629.718 150.6V150.6C629.616 148.178 629.49 145.208 629.924 142.927C628.359 142.897 626.756 142.786 625.286 142.684C623.869 142.586 622.575 142.497 621.558 142.497C620.268 142.497 618.979 142.493 617.689 142.489H617.689H617.689H617.689C614.116 142.478 610.543 142.467 606.97 142.537C606.631 142.544 606.292 142.551 605.953 142.557L605.952 142.557L605.952 142.557C601.032 142.652 596.071 142.748 591.191 143.396C590.905 143.434 590.562 143.507 590.182 143.596C590.716 145.832 590.454 148.983 590.225 151.742C590.113 153.083 590.01 154.331 590.009 155.337C590.002 161.592 590.167 167.824 590.332 174.049L590.332 174.049L590.332 174.049C590.394 176.404 590.457 178.758 590.51 181.112C590.516 181.393 590.509 181.654 590.491 181.895Z" fill="#89C5CC"/>
<path fill-rule="evenodd" clip-rule="evenodd" d="M538.284 185.124C535.157 186.951 536.843 194.259 537.927 196.787C539.708 200.943 543.322 204.195 547.222 206.352C555.104 210.713 566.466 209.554 572.427 217.114C572.489 217.192 574.549 219.232 575.018 216.591C575.403 214.422 571.557 211.112 570.066 210.025C565.827 206.935 560.391 205.938 555.488 204.394C550.259 202.748 544.521 199.713 542.328 194.322C541.552 192.413 543.032 182.337 538.284 185.124Z" fill="#C1DEE2"/>
<path fill-rule="evenodd" clip-rule="evenodd" d="M609.779 188.637C606.913 189.427 608.808 193.37 608.804 195.345C608.798 197.808 608.011 200.387 606.493 202.352C602.642 207.338 595.104 208.085 589.452 209.514C585.348 210.553 575.529 212.78 575.144 218.33C574.715 224.529 583.384 216.986 584.116 216.676C592.219 213.704 602.701 213.13 608.954 206.588C611.536 203.888 613.062 200.283 613.304 196.563C613.441 194.469 613.464 187.63 609.779 188.637Z" fill="#C1DEE2"/>
<path fill-rule="evenodd" clip-rule="evenodd" d="M550.561 243.616C550.494 232.148 561.469 225.211 571.393 222.601C583.322 219.459 594.433 227.817 595.84 239.84C597.324 252.529 587.76 262.744 575.148 263.304C564.054 263.797 550.632 255.853 550.561 243.616ZM577.207 228.115C577.852 228.992 578.434 230.392 577.134 231.154C575.884 231.883 575.26 231.007 574.631 230.126C574.234 229.568 573.835 229.009 573.276 228.851C571.826 228.443 569.495 229.968 568.288 230.857C567.797 231.218 567.1 231.995 566.284 232.904C563.688 235.795 559.897 240.017 557.802 236.384C549.446 250.814 570.278 261.612 582.124 256.151C595.134 250.154 592.602 228.23 577.207 228.115Z" fill="#89C5CC"/>
<path fill-rule="evenodd" clip-rule="evenodd" d="M566.289 239.776C566.289 242.408 570.446 242.408 570.446 239.776C570.446 237.174 566.289 237.062 566.289 239.776Z" fill="#89C5CC"/>
<path fill-rule="evenodd" clip-rule="evenodd" d="M573.603 239.282C573.603 242.506 578.697 242.506 578.697 239.282C578.697 236.094 573.603 235.958 573.603 239.282Z" fill="#89C5CC"/>
<path fill-rule="evenodd" clip-rule="evenodd" d="M568.369 246.796C564.203 249.246 576.117 254.115 576.587 249.14C576.79 246.993 574.711 247.572 573.325 247.414C571.999 247.263 569.627 246.063 568.369 246.796Z" fill="#89C5CC"/>
<path fill-rule="evenodd" clip-rule="evenodd" d="M566.562 264.181C566.743 270.44 566.656 276.695 567.843 282.867C568.069 284.039 568.226 288.291 569.152 289.162C571.431 291.304 571.468 287.198 571.557 285.625C571.873 279.989 571.282 274.179 571.151 268.531C571.123 267.316 571.445 264.798 570.871 263.622C569.961 261.754 566.474 261.2 566.562 264.181Z" fill="#C1DEE2"/>
<path fill-rule="evenodd" clip-rule="evenodd" d="M562.107 259.106C552.973 269.357 540.397 268.602 527.726 269.5C521.032 269.974 514.263 270.948 508.876 275.278C506.371 277.293 504.21 279.816 502.759 282.691C502.124 283.948 499.114 291.201 503.635 289.48C505.238 288.87 506.816 284.074 507.853 282.655C509.828 279.953 512.354 277.722 515.385 276.272C521.233 273.475 528.214 273.522 534.554 273.167C541.181 272.797 548.295 272.45 554.387 269.568C557.252 268.212 559.941 266.521 562.247 264.343C563.071 263.564 564.838 262.241 564.97 261.05C565.12 259.689 563.812 257.196 562.107 259.106Z" fill="#C1DEE2"/>
<path fill-rule="evenodd" clip-rule="evenodd" d="M515.999 290.57C507.42 290.856 498.852 291.203 490.285 291.746C488.529 291.857 482.675 291.502 484.166 295.1C485.361 297.983 492.5 296.076 494.861 295.936C503.789 295.406 512.753 295.222 521.661 294.419C523.662 294.239 532.708 294.311 528.973 290.764C527.196 289.076 518.454 290.486 515.999 290.57Z" fill="#89C5CC"/>
<path fill-rule="evenodd" clip-rule="evenodd" d="M478.719 294.707C476.015 298.259 477.258 306.891 477.462 311.16C477.66 315.298 476.856 322.863 482.257 323.504C480.542 323.279 483.559 323.609 484.05 323.635C485.146 323.694 486.248 323.713 487.346 323.725C489.883 323.753 492.421 323.719 494.957 323.668C500.702 323.553 506.462 323.386 512.2 323.068C514.612 322.935 527.696 323.046 528.214 320.541C528.876 317.339 516.331 319.15 514.085 319.253C508.616 319.503 503.138 319.556 497.664 319.628C494.951 319.664 492.235 319.69 489.522 319.637C488.401 319.615 483.965 320.075 483.284 319.328C482.703 318.692 483.156 312.842 483.144 311.947C483.104 309.03 483.107 306.106 483.211 303.19C483.281 301.227 484.342 297.492 483.477 295.648C482.636 293.856 480.185 293.244 478.719 294.707Z" fill="#89C5CC"/>
<path fill-rule="evenodd" clip-rule="evenodd" d="M522.895 294.873C523.051 301.37 523.1 307.999 524.635 314.353C525.145 316.468 525.861 320.829 527.985 321.924C530.215 323.073 532.14 321.433 532.286 319.223C532.469 316.446 530.982 312.799 530.677 309.949C530.321 306.624 530.114 303.295 529.992 299.954C529.9 297.441 530.663 293.673 528.268 292.053C526.116 290.597 522.825 292.063 522.895 294.873Z" fill="#89C5CC"/>
<path fill-rule="evenodd" clip-rule="evenodd" d="M539.968 293.286C537.3 295.944 538.493 304.359 538.826 307.774C539.071 310.275 541.808 322.58 545.91 316.164C547.725 313.325 545.42 305.82 545.436 302.511C545.446 300.403 546.193 297.738 545.833 295.713C545.357 293.036 542.389 290.869 539.968 293.286Z" fill="#89C5CC"/>
<path fill-rule="evenodd" clip-rule="evenodd" d="M558.443 291.092C566.457 290.266 574.481 289.645 582.539 289.568C582.926 289.565 583.333 289.56 583.756 289.555C589.279 289.485 597.579 289.38 601.296 293.527C603.321 295.786 604.238 299.279 605.038 302.324C605.187 302.892 605.332 303.444 605.479 303.97C605.605 304.419 605.769 304.932 605.946 305.485C606.781 308.099 607.91 311.636 606.765 313.826C606.137 315.026 605.126 316.05 603.591 315.625C603.233 315.526 602.952 315.398 602.731 315.248C603.319 315.885 603.58 316.791 603.198 317.678C602.46 319.392 600.128 319.428 598.291 319.457C597.846 319.464 597.429 319.47 597.072 319.5C590.953 320.01 584.806 320.35 578.665 320.404C575.742 320.43 572.818 320.406 569.894 320.382C566.884 320.357 563.875 320.333 560.865 320.362C558.681 320.384 556.456 320.591 554.231 320.799C551.421 321.061 548.611 321.324 545.878 321.212C543.834 321.127 541.651 320.458 542.169 317.816C542.592 315.66 544.622 315.471 546.441 315.303C546.599 315.288 546.756 315.273 546.91 315.258C552.702 314.668 558.498 314.459 564.32 314.48C576.551 314.523 588.772 314.459 601.003 314.395C601.506 314.437 601.979 314.629 602.369 314.922C601.929 314.387 601.937 313.676 601.946 312.918C601.951 312.575 601.955 312.223 601.918 311.873C601.843 311.17 601.774 310.47 601.706 309.771C601.48 307.463 601.255 305.17 600.815 302.848C600.748 302.497 600.684 302.112 600.617 301.703C600.216 299.292 599.686 296.097 597.769 294.795C595.841 293.486 592.061 293.549 589.115 293.598C588.319 293.611 587.585 293.624 586.964 293.607C579.103 293.405 571.196 293.963 563.371 294.674C562.77 294.729 562.168 294.781 561.565 294.834C558.588 295.093 555.595 295.354 552.661 295.887C552.124 295.984 551.304 296.271 550.363 296.599C547.859 297.472 544.503 298.643 543.362 297.353C539.584 293.08 556.188 291.325 558.443 291.092Z" fill="#89C5CC"/>
<path fill-rule="evenodd" clip-rule="evenodd" d="M643.707 281.363C644.055 281.811 644.055 281.811 643.707 281.363V281.363ZM589.472 254.887C584.605 257.748 593.614 266.143 595.909 267.441C601.073 270.363 608.169 270.804 613.936 271.625C621.233 272.666 629.176 273.049 636.189 275.44C639.178 276.459 641.077 278.049 643.034 280.493C644.025 281.732 646.412 287.069 648.587 285.805C652.964 283.261 641.169 272.583 638.57 271.435C632.661 268.825 625.677 268.094 619.36 267.081C613.486 266.138 607.486 265.437 601.757 263.775C598.606 262.862 596.367 261.388 594.551 258.567C593.42 256.809 592.491 253.121 589.472 254.887Z" fill="#C1DEE2"/>
<path fill-rule="evenodd" clip-rule="evenodd" d="M664.091 287.681C658.479 287.805 652.878 288.237 647.278 288.669C644.136 288.911 640.995 289.153 637.852 289.341C636.87 289.4 635.886 289.453 634.901 289.506L634.901 289.506L634.901 289.506C632.133 289.655 629.361 289.804 626.606 290.082C626.187 290.125 625.702 290.164 625.174 290.208C622.834 290.4 619.643 290.662 617.604 291.516C615.735 290.102 612.851 291.304 612.806 293.824C612.729 298.414 612.771 302.922 613.331 307.484C613.461 308.543 614.13 313.905 615.586 316.695C615.068 319.331 617.315 320.07 619.406 320.272C627.505 321.054 635.999 320.447 644.377 319.848C648.639 319.544 652.871 319.241 657.006 319.125C658.381 319.086 659.773 319.07 661.174 319.055C665.746 319.003 670.406 318.951 674.833 318.087C675.011 318.052 675.202 318.018 675.401 317.982C677.151 317.668 679.565 317.235 679.748 315.309C679.859 314.154 679.207 313.096 678.115 312.947C678.19 311.984 678.069 310.933 677.98 310.16L677.98 310.16C677.959 309.98 677.94 309.816 677.926 309.671C677.661 306.992 676.994 304.331 676.335 301.704L676.335 301.704L676.335 301.704C676.187 301.114 676.039 300.525 675.897 299.938C675.739 299.288 675.592 298.515 675.435 297.681C674.878 294.739 674.179 291.041 672.319 289.325C670.369 287.524 667.193 287.604 664.65 287.668C664.459 287.672 664.273 287.677 664.091 287.681ZM673.965 313.234C673.3 311.493 673.106 309.137 672.92 306.899V306.899C672.804 305.493 672.692 304.133 672.469 303.001C672.302 302.151 672.165 301.254 672.026 300.343L672.026 300.343C671.688 298.131 671.336 295.831 670.506 293.892C669.394 291.296 668.404 291.395 666.062 291.63C665.626 291.673 665.144 291.722 664.605 291.758C662.218 291.92 659.833 292.127 657.449 292.333L657.449 292.333C656.305 292.432 655.161 292.531 654.017 292.625C649.121 293.028 644.223 293.337 639.323 293.647L639.323 293.647C636.461 293.827 633.599 294.008 630.736 294.207C628.49 294.364 626.298 294.791 624.115 295.216C622.385 295.553 620.662 295.888 618.921 296.088C618.896 296.683 618.846 297.28 618.799 297.849C618.734 298.623 618.673 299.345 618.686 299.937C618.743 302.558 618.975 305.164 619.206 307.773C619.242 308.175 619.278 308.576 619.313 308.978C619.355 309.459 619.458 310.077 619.573 310.763C619.751 311.823 619.955 313.045 620.001 314.171C620.213 314.169 620.423 314.17 620.631 314.171C620.899 314.172 621.162 314.173 621.414 314.168C627.583 314.061 633.747 313.874 639.912 313.637C640.698 313.606 641.485 313.576 642.272 313.545C647.772 313.331 653.273 313.117 658.777 313.054C660.964 313.029 663.18 313.097 665.402 313.166C668.261 313.255 671.131 313.343 673.965 313.234Z" fill="#89C5CC"/>
</g>
</svg>
